<?xml version="1.0" encoding="UTF-8" standalone="no"?>
<!-- Created with Inkscape (http://www.inkscape.org/) -->

<svg
   width="42mm"
   height="39mm"
   viewBox="0 0 42 39"
   version="1.1"
   id="svg5"
   inkscape:version="1.1.2 (0a00cf5339, 2022-02-04)"
   sodipodi:docname="drawing.svg"
   xmlns:inkscape="http://www.inkscape.org/namespaces/inkscape"
   xmlns:sodipodi="http://sodipodi.sourceforge.net/DTD/sodipodi-0.dtd"
   xmlns="http://www.w3.org/2000/svg"
   xmlns:svg="http://www.w3.org/2000/svg">
  <sodipodi:namedview
     id="namedview7"
     pagecolor="#ffffff"
     bordercolor="#666666"
     borderopacity="1.0"
     inkscape:pageshadow="2"
     inkscape:pageopacity="0.0"
     inkscape:pagecheckerboard="0"
     inkscape:document-units="mm"
     showgrid="false"
     inkscape:zoom="0.40567375"
     inkscape:cx="624.88638"
     inkscape:cy="591.60841"
     inkscape:window-width="2560"
     inkscape:window-height="1379"
     inkscape:window-x="0"
     inkscape:window-y="0"
     inkscape:window-maximized="1"
     inkscape:current-layer="layer1" />
  <defs
     id="defs2" />
  <g
     inkscape:label="Layer 1"
     inkscape:groupmode="layer"
     id="layer1">
    <g
       id="g1905"
       transform="matrix(0.16834935,0,0,0.16834935,2.2977667,-5.8131509)"
       style="stroke-width:5.94003">
      <path
         style="fill:#ef4d4f;stroke-width:5.94003"
         d="m 93.324485,250.49329 c -0.08925,-0.14441 -0.296071,-1.27123 -0.459599,-2.50405 C 91.31607,236.31293 87.983895,228.1958 81.354823,219.95088 75.460828,212.62021 69.39045,207.22025 52.507375,194.2894 39.104809,184.02429 32.845334,178.71637 25.514373,171.39984 5.9750159,151.89893 -4.1377501,131.87266 -4.9482363,111.07484 -5.8737088,87.326361 6.9721643,66.359939 27.769596,57.674345 c 10.430258,-4.355968 22.822182,-5.346977 33.441787,-2.67441 19.514409,4.911064 32.745478,23.550324 37.199013,52.404095 0.289161,1.87342 0.527008,3.91224 0.52855,4.5307 0.0016,0.61847 0.0921,1.12034 0.20124,1.11527 0.10914,-0.005 0.597812,-1.22545 1.085934,-2.71198 0.48813,-1.48652 1.65344,-4.42917 2.58959,-6.53923 8.31351,-18.738342 22.11325,-34.730833 38.26161,-44.341261 10.71198,-6.37506 22.21093,-10.305859 32.92319,-11.254454 11.11313,-0.984093 22.06902,2.571689 30.48646,9.894516 4.96317,4.317752 9.5421,10.92712 12.59815,18.184538 3.79531,9.013026 5.67673,21.037232 4.93684,31.551561 -0.45603,6.4805 -0.89136,9.38408 -2.31068,15.41198 -2.1027,8.93021 -7.01736,19.43529 -12.9352,27.64896 -9.59315,13.31483 -27.29349,30.71539 -48.56767,47.74511 -15.92295,12.74613 -36.6279,27.33471 -52.19875,36.77893 -2.50491,1.51931 -5.92359,3.69097 -7.597078,4.82593 l -3.042709,2.06357 -0.132291,2.38125 c -0.134874,2.42774 -0.495605,2.54044 -0.565902,0.1768 -0.02019,-0.67933 -0.143682,-0.003 -0.274396,1.50276 -0.231847,2.67087 -0.747022,4.65143 -1.072799,4.12431 z"
         id="path1909" />
      <path
         style="fill:#474343;stroke-width:5.94003"
         d="m 93.307634,250.29209 c -0.08619,-0.2246 -0.2883,-1.39849 -0.449135,-2.60864 -2.418943,-18.20059 -9.764107,-29.26279 -30.296958,-45.62881 -1.455208,-1.1599 -5.800989,-4.5343 -9.657291,-7.49866 C 34.168605,180.15375 25.921876,172.74306 17.487584,162.72977 5.0382843,147.94982 -2.1171987,133.19066 -4.4128458,117.55713 -5.0408753,113.2802 -5.0389034,104.1794 -4.4090911,100.22692 -2.5142906,88.335826 1.834458,79.020315 9.4444229,70.551135 12.590911,67.049382 17.803451,62.917728 22.344876,60.325749 c 11.187953,-6.385428 26.001971,-8.431361 38.629165,-5.334992 16.202604,3.973111 28.273348,17.533563 34.401846,38.647541 1.803138,6.212189 3.565861,15.453552 3.565861,18.694592 0,1.42786 0.312417,1.05915 1.065982,-1.25805 2.10857,-6.48382 6.47932,-15.378743 10.75499,-21.887493 9.48841,-14.443966 21.81299,-25.713478 35.82293,-32.75624 11.83222,-5.948028 24.75766,-9.070429 33.98005,-8.20857 7.88872,0.737223 13.7939,2.757823 19.97604,6.835284 3.26572,2.153913 8.89586,7.878397 11.24441,11.43283 9.03695,13.676984 12.18775,30.78176 9.23619,50.140439 -1.7614,11.55264 -6.85708,23.87809 -14.00141,33.86666 -11.45588,16.0166 -33.85528,37.16476 -60.85106,57.45187 -17.22835,12.94698 -41.07668,28.71371 -49.640447,32.81856 l -2.085591,0.99968 -0.0052,2.25453 c -0.0056,2.42136 -0.390406,5.6348 -0.752102,6.28112 -0.196199,0.35058 -0.240453,0.34925 -0.378854,-0.0114 z m 2.345343,-10.8428 c 0.571897,-0.48097 4.849813,-3.77814 9.506483,-7.32703 16.33606,-12.44989 28.52699,-22.02798 37.17395,-29.2066 32.69785,-27.14542 53.18009,-48.7221 61.80219,-65.10449 3.76753,-7.1585 6.45891,-15.39859 7.82521,-23.95821 0.53149,-3.32961 0.61278,-4.79773 0.61533,-11.1125 0.003,-7.989698 -0.25245,-10.395755 -1.72135,-16.19824 -3.22039,-12.721259 -10.28557,-22.385797 -19.68819,-26.931653 -5.03587,-2.43468 -8.73597,-3.24899 -14.70194,-3.235567 -9.79468,0.02204 -21.69188,3.645332 -33.07291,10.07236 -2.46359,1.391221 -7.92176,5.137123 -10.72226,7.358607 -3.53589,2.804824 -11.36429,10.593001 -14.4567,14.382412 -6.21174,7.611792 -11.55235,16.016961 -17.23182,27.119791 -1.461274,2.85665 -1.493355,2.9675 -1.736427,5.99992 -0.136205,1.69923 -0.326613,3.21727 -0.423127,3.37344 -0.583285,0.94377 -0.990714,-0.31015 -2.529822,-7.78586 C 91.566544,93.945286 84.403908,78.661757 74.344095,70.06442 71.77891,67.872154 70.268756,66.873061 67.059458,65.245011 61.741015,62.54701 57.401145,61.625638 50.126125,61.650001 c -6.05463,0.02027 -9.440656,0.545473 -14.718971,2.283026 -9.455108,3.112495 -16.875336,8.583512 -22.647449,16.698209 -1.771153,2.48997 -4.6855803,8.221577 -5.7261865,11.261309 -2.1037076,6.145181 -3.0708657,13.745825 -2.55872,20.108335 0.9702054,12.05308 5.323629,24.28303 12.6675065,35.58646 8.539268,13.14333 17.92592,22.90238 38.804653,40.34418 17.316918,14.46631 24.853232,22.02153 30.355677,30.43186 2.353754,3.59764 4.709141,8.39457 5.878522,11.97207 1.019043,3.11756 1.998091,7.54597 1.998091,9.03772 0,0.52284 0.09763,0.95062 0.216959,0.95062 0.119327,0 0.684874,-0.39352 1.25677,-0.8745 z"
         id="path1907" />
    </g>
  </g>
</svg>
