<?xml version="1.0" encoding="UTF-8" standalone="no"?>
<!-- Created with Inkscape (http://www.inkscape.org/) -->

<svg
   width="40.757858mm"
   height="25.406061mm"
   viewBox="0 0 40.757859 25.406059"
   version="1.1"
   id="svg1"
   inkscape:version="1.4.3 (0d15f75042, 2025-12-25)"
   sodipodi:docname="late-refreshments.svg"
   xmlns:inkscape="http://www.inkscape.org/namespaces/inkscape"
   xmlns:sodipodi="http://sodipodi.sourceforge.net/DTD/sodipodi-0.dtd"
   xmlns="http://www.w3.org/2000/svg"
   xmlns:svg="http://www.w3.org/2000/svg">
  <sodipodi:namedview
     id="namedview1"
     pagecolor="#ffffff"
     bordercolor="#666666"
     borderopacity="1.0"
     inkscape:showpageshadow="2"
     inkscape:pageopacity="0.0"
     inkscape:pagecheckerboard="0"
     inkscape:deskcolor="#d1d1d1"
     inkscape:document-units="mm"
     inkscape:zoom="5.901167"
     inkscape:cx="86.931958"
     inkscape:cy="40.83938"
     inkscape:window-width="1934"
     inkscape:window-height="1139"
     inkscape:window-x="0"
     inkscape:window-y="0"
     inkscape:window-maximized="0"
     inkscape:current-layer="layer1" />
  <defs
     id="defs1" />
  <g
     inkscape:label="Layer 1"
     inkscape:groupmode="layer"
     id="layer1"
     transform="translate(-58.148185,-154.24816)">
    <path
       style="fill:none;stroke:#000000;stroke-width:1.16314;stroke-linecap:round;stroke-linejoin:round;stroke-miterlimit:4;stroke-dasharray:none;stroke-opacity:1"
       d="m 61.621303,173.7913 c -1.38404,0.18375 -1.750077,0.32638 -1.921168,0.52425 l -0.674071,0.77957 c -1.540397,1.78147 2.436886,4.21911 11.870442,3.95783 9.512141,-0.26345 23.278292,0.5519 26.231971,-1.59309 1.31154,-0.95246 1.81222,-2.56733 0.12061,-3.35728 -1.02027,-0.47644 -2.77529,-0.91525 -3.141855,-0.90615"
       id="path7211-6"
       sodipodi:nodetypes="csssssc" />
    <path
       style="fill:none;stroke:#000000;stroke-width:1.01229;stroke-linecap:round;stroke-linejoin:round;stroke-dasharray:none;stroke-opacity:1"
       d="m 61.751797,174.62158 c 0.132801,-2.45922 0.234646,-4.4243 1.492291,-5.69514 0.595241,-0.60149 1.449391,-1.04745 2.688276,-1.31669 3.856446,-0.8381 14.808922,-0.95571 14.808922,-0.95571 l 4.11481,9.51567 c -7.783683,-0.15006 -17.859902,0.84615 -22.961585,-0.64491 z"
       id="path1"
       sodipodi:nodetypes="csscccc" />
    <path
       style="fill:none;stroke:#000000;stroke-width:1.01229;stroke-linecap:round;stroke-linejoin:round;stroke-dasharray:none;stroke-opacity:1"
       d="m 82.271265,166.72007 4.385761,8.79145 1.73263,0.15459 -4.36146,-8.85928 z"
       id="path2"
       sodipodi:nodetypes="ccccc" />
    <path
       style="fill:none;stroke:#000000;stroke-width:1.01229;stroke-linecap:round;stroke-linejoin:round;stroke-dasharray:none;stroke-opacity:1"
       d="m 86.01277,167.14165 3.886496,8.40126 1.569,0.10639 -3.64733,-8.50674 z"
       id="path3"
       sodipodi:nodetypes="ccccc" />
    <path
       style="fill:none;stroke:#000000;stroke-width:1.01229;stroke-linecap:round;stroke-linejoin:round;stroke-dasharray:none;stroke-opacity:1"
       d="m 89.539214,167.46345 3.756789,8.22831 1.79959,0.0776 -3.661742,-8.16086 z"
       id="path3-7"
       sodipodi:nodetypes="ccccc" />
    <path
       id="path25790-5-1"
       style="baseline-shift:baseline;display:inline;overflow:visible;vector-effect:none;stroke-linecap:round;stroke-linejoin:round;enable-background:accumulate;stop-color:#000000;stop-opacity:1;opacity:1"
       d="M 78.711271 154.24919 A 0.52929997 0.52929997 0 0 0 78.187272 154.62488 C 77.992658 155.2696 77.064085 157.6136 76.189461 159.7362 C 75.752149 160.7975 75.324954 161.81652 74.99987 162.57633 C 74.837328 162.95624 74.700194 163.27139 74.601444 163.49204 C 74.563174 163.57754 74.536747 163.63564 74.511527 163.68944 C 73.252846 163.97939 72.296499 164.76461 71.673974 165.64436 C 70.99296 166.60677 70.627527 167.62742 70.461129 168.16979 A 0.5293529 0.5293529 0 0 0 70.456994 168.17806 C 70.439717 168.23759 70.42582 168.29038 70.415653 168.34652 L 71.910136 168.29381 L 73.154504 166.87323 L 72.785018 168.10933 L 72.739026 168.26436 L 74.125504 168.21527 L 74.486206 167.4396 L 74.441247 168.1486 L 74.43763 168.20441 L 76.071639 168.14654 C 76.308727 167.32183 76.524716 166.46066 76.566699 165.79888 C 76.621629 164.93308 76.174191 164.32641 75.773466 164.02741 C 75.692996 163.96741 75.648086 163.95078 75.576062 163.90804 C 75.678497 163.67882 75.812158 163.36966 75.972937 162.99388 C 76.300703 162.2278 76.7293 161.20395 77.168213 160.13876 C 78.046039 158.00839 78.950016 155.76177 79.201164 154.92977 A 0.52929997 0.52929997 0 0 0 78.847697 154.27141 A 0.52929997 0.52929997 0 0 0 78.711271 154.24919 z " />
    <path
       style="fill:none;stroke:#000000;stroke-width:0.74764;stroke-linecap:round;stroke-linejoin:round;stroke-dasharray:none;stroke-opacity:1"
       d="m 79.359766,171.19936 c -0.0381,0.45769 0.76283,2.44103 0.76283,2.44103"
       id="path4" />
    <path
       style="fill:none;stroke:#000000;stroke-width:0.74764;stroke-linecap:round;stroke-linejoin:round;stroke-dasharray:none;stroke-opacity:1"
       d="m 76.613598,171.96217 -0.114422,1.56379"
       id="path5" />
    <path
       style="fill:none;stroke:#000000;stroke-width:0.74764;stroke-linecap:round;stroke-linejoin:round;stroke-dasharray:none;stroke-opacity:1"
       d="m 72.418064,171.65705 0.419557,1.64007"
       id="path6" />
    <path
       style="fill:none;stroke:#000000;stroke-width:0.74764;stroke-linecap:round;stroke-linejoin:round;stroke-dasharray:none;stroke-opacity:1"
       d="m 65.857776,170.16955 c 0,0 0.114422,2.1359 0.533976,2.55546"
       id="path7" />
  </g>
</svg>
