<?xml version="1.0" encoding="UTF-8" standalone="no"?>
<!-- Created with Inkscape (http://www.inkscape.org/) -->

<svg
   width="32.750862mm"
   height="30.430552mm"
   viewBox="0 0 32.750862 30.430552"
   version="1.1"
   id="svg5"
   sodipodi:docname="pig-cake.svg"
   inkscape:version="1.1.2 (0a00cf5339, 2022-02-04)"
   xmlns:inkscape="http://www.inkscape.org/namespaces/inkscape"
   xmlns:sodipodi="http://sodipodi.sourceforge.net/DTD/sodipodi-0.dtd"
   xmlns="http://www.w3.org/2000/svg"
   xmlns:svg="http://www.w3.org/2000/svg">
  <sodipodi:namedview
     id="namedview43"
     pagecolor="#ffffff"
     bordercolor="#666666"
     borderopacity="1.0"
     inkscape:pageshadow="2"
     inkscape:pageopacity="0.0"
     inkscape:pagecheckerboard="0"
     inkscape:document-units="mm"
     showgrid="false"
     inkscape:zoom="4.2597917"
     inkscape:cx="28.053015"
     inkscape:cy="70.191226"
     inkscape:window-width="2560"
     inkscape:window-height="1379"
     inkscape:window-x="0"
     inkscape:window-y="0"
     inkscape:window-maximized="1"
     inkscape:current-layer="svg5"
     fit-margin-top="0"
     fit-margin-left="0"
     fit-margin-right="0"
     fit-margin-bottom="0" />
  <defs
     id="defs2">
    <mask
       maskUnits="userSpaceOnUse"
       id="mask-powermask-path-effect54468-7">
      <path
         id="mask-powermask-path-effect54468-7_box"
         style="fill:#ffffff;fill-opacity:1"
         d="m 567.47221,99.3803 h 58.41444 v 25.98878 h -58.41444 z" />
      <path
         id="path55561"
         style="fill:#ffffff;fill-opacity:1"
         d="m 567.47221,99.3803 h 58.41444 v 25.98878 h -58.41444 z" />
      <path
         style="fill:#000000;stroke:#000000;stroke-width:0.999998;stroke-linecap:round;stroke-linejoin:round;stroke-miterlimit:4;stroke-dasharray:none;stroke-opacity:1"
         d="m 574.07829,109.99486 c 0,0 -1.82613,-2.03173 -2.46497,-0.61412 -0.63884,1.41763 1.59121,1.97411 1.59121,1.97411 0,0 -0.6598,0.16658 -1.26567,0.87242 -0.60589,0.70581 0.55264,3.44441 1.73213,1.88666 1.17951,-1.55776 1.09611,-1.68279 1.09611,-1.68279 0,0 0.16878,1.52978 1.02299,1.83712 0.8542,0.30735 2.36593,-0.72048 1.50659,-2.03147 -0.31065,-0.47388 -0.59378,-0.87269 -0.59378,-0.87269 0,0 1.8066,-0.0121 2.00207,-0.85604 0.19548,-0.8439 -0.31681,-2.08264 -1.14387,-2.27993 -0.62701,-0.14957 -1.55408,1.15088 -1.55408,1.15088 0,0 0.39216,-1.29876 -0.56367,-1.83784 -0.95591,-0.53909 -1.46452,-0.39259 -1.84169,0.0928 -0.49265,0.63393 0.47663,2.36093 0.47663,2.36093 z"
         id="path55563" />
    </mask>
    <filter
       id="mask-powermask-path-effect54468-7_inverse"
       style="color-interpolation-filters:sRGB"
       height="100"
       width="100"
       x="-50"
       y="-50">
      <feColorMatrix
         id="mask-powermask-path-effect54468-7_primitive1"
         values="1"
         type="saturate"
         result="fbSourceGraphic" />
      <feColorMatrix
         id="mask-powermask-path-effect54468-7_primitive2"
         values="-1 0 0 0 1 0 -1 0 0 1 0 0 -1 0 1 0 0 0 1 0 "
         in="fbSourceGraphic" />
    </filter>
  </defs>
  <path
     sodipodi:nodetypes="zzcsz"
     inkscape:connector-curvature="0"
     id="path4751-7-9-2-5-3"
     d="m 16.048242,9.1631005 c 1.52167,-0.11671 4.41468,0.3345 4.37741,2.1533605 -0.0372,1.81884 -1.41813,2.63235 -3.93527,2.75516 -1.96652,0.0959 -3.75679,-0.61751 -3.95896,-2.20476 -0.2482,-1.9486205 1.99512,-2.5870705 3.51682,-2.7037605 z"
     style="fill:none;stroke:#000000;stroke-width:1.01934;stroke-linecap:round;stroke-linejoin:round;stroke-miterlimit:4;stroke-dasharray:none;stroke-opacity:1" />
  <g
     id="g4614-3-4-2-0-4-6"
     style="display:inline"
     transform="matrix(1.0010978,0,0,0.92801141,-174.97007,-128.9571)">
    <ellipse
       transform="rotate(-20.429176)"
       cy="208.28809"
       cx="125.22931"
       id="path4570-7-7-4-0-6-7-7"
       style="opacity:1;fill:#000000;fill-opacity:1;fill-rule:evenodd;stroke:#000000;stroke-width:1;stroke-linecap:butt;stroke-linejoin:round;stroke-miterlimit:4;stroke-dasharray:none;stroke-dashoffset:0;stroke-opacity:1"
       rx="0.25531372"
       ry="0.28872243" />
  </g>
  <g
     id="g4614-9-3-6-1-6-5"
     style="display:inline"
     transform="matrix(1.0010978,0,0,0.92801141,-173.72273,-122.97134)">
    <ellipse
       transform="rotate(-20.429176)"
       cy="202.53282"
       cx="128.38039"
       id="path4570-7-0-0-8-5-5-3"
       style="opacity:1;fill:#000000;fill-opacity:1;fill-rule:evenodd;stroke:#000000;stroke-width:1;stroke-linecap:butt;stroke-linejoin:round;stroke-miterlimit:4;stroke-dasharray:none;stroke-dashoffset:0;stroke-opacity:1"
       rx="0.25531372"
       ry="0.28872243" />
  </g>
  <path
     style="fill:none;stroke:#000000;stroke-width:0.830537;stroke-linecap:round;stroke-linejoin:round;stroke-miterlimit:4;stroke-dasharray:none;stroke-opacity:1"
     d="m 10.216502,4.7994105 c -0.20009,-0.54139 13.01884,-0.52132 13.23209,-0.44644 0.31287,3.51922 0.65528,7.0248705 0.12062,10.9339005 0,0 -13.6214798,0.3378 -14.2195298,0.10684 -0.65145,-0.25156 0.8103498,-11.1868305 0.8668198,-10.5943705 z"
     id="path20394-6-5"
     sodipodi:nodetypes="cccsc" />
  <path
     style="fill:none;stroke:#000000;stroke-width:0.963862;stroke-linecap:round;stroke-linejoin:round;stroke-miterlimit:4;stroke-dasharray:none;stroke-opacity:1"
     d="m 5.1435822,15.916161 c 0,-0.6591 21.6732098,-0.59871 22.1542098,-0.13494 0.22462,0.21656 0.4288,11.30307 0.4288,11.30307 0.42229,0.20527 -21.8793298,0.82828 -23.5603098,0.0824 -0.22755,-0.10096 0.9773,-11.25046 0.9773,-11.25046 z"
     id="path20396-9-6"
     sodipodi:nodetypes="sscscs" />
  <path
     style="fill:none;stroke:#000000;stroke-width:0.963862;stroke-linecap:round;stroke-linejoin:round;stroke-miterlimit:4;stroke-dasharray:none;stroke-opacity:1"
     d="m 4.0481322,25.908501 c -3.31605995,0.13334 -5.97796,2.61089 -0.0827,3.67278 4.7418,0.85411 22.9344398,-0.0104 25.1656598,-0.43176 5.64928,-1.06684 2.71673,-3.10113 -1.31184,-3.30151"
     id="path20398-3-2"
     sodipodi:nodetypes="cssc" />
  <path
     style="fill:#000000;stroke:#000000;stroke-width:0.255022px;stroke-linecap:butt;stroke-linejoin:miter;stroke-opacity:1"
     d="m 5.5943022,15.922311 c 0.73115,1.05151 0.94102,2.33483 1.00422,3.54953 0.0842,1.61815 0.11028,2.04807 -0.28243,3.41719 -0.25074,0.87412 1.33309,0.68091 1.39031,-0.14967 0.10237,-1.48582 -0.67766,-2.24548 -0.54982,-4.05305 0.0683,-0.96519 0.41339,-1.9042 0.81556,-2.80243 1.03903,-0.30956 0.90052,1.35564 1.01774,1.98414 0.12538,0.61026 -0.32101,1.87284 0.48984,2.01844 0.52004,-0.73405 0.23634,-1.73702 0.5335098,-2.56438 0.0256,-0.78076 1.07431,-1.72049 1.52556,-0.61658 0.3848,0.77219 0.45643,1.64208 0.65737,2.46224 -10e-4,1.04176 -0.25658,2.07117 -0.4208,3.09847 -0.39186,0.80007 -0.20998,2.40649 1.17522,1.74711 0.94421,-0.44945 0.0882,-1.92159 0.0531,-2.8545 -0.0553,-1.46707 -0.5621,-3.04149 0.2776,-4.37237 0.25506,-0.90912 1.61607,-1.2366 1.85458,-0.12941 0.44557,0.76856 -0.57579,2.003 0.62636,2.35708 0.90425,-0.45493 -0.0918,-1.68352 0.24715,-2.44759 0.35504,-0.97246 1.76244,-0.67796 2.57478,-0.43805 1.07776,0.36997 0.78814,1.8349 1.8135,2.23272 1.09096,0.28791 1.76092,-0.82442 2.06541,-1.6189 0.58702,-1.00466 1.04691,0.34309 1.05541,0.90389 0.17115,1.22297 0.23141,2.49665 -0.23699,3.67377 -0.2006,0.91662 -0.52933,2.03164 0.10037,2.86298 0.93616,0.95044 2.10335,-0.31025 1.85495,-1.27974 -0.24365,-1.8631 -0.59461,-4.74776 -0.12602,-5.64204 0.46858,-0.89429 1.11503,0.56669 1.25655,0.82097 0.14151,0.25429 0.61245,1.4777 0.82214,2.80839 -0.0918,-1.22758 0.0718,-4.03452 -0.0201,-5.26209 l -21.5750798,0.29388 z"
     id="path20948-7-9"
     sodipodi:nodetypes="csssssssssssssssssssssssszzcccc" />
  <ellipse
     style="display:inline;fill:#000000;fill-opacity:1;fill-rule:evenodd;stroke:#000000;stroke-width:1.00498;stroke-linecap:butt;stroke-linejoin:round;stroke-miterlimit:4;stroke-dasharray:none;stroke-dashoffset:0;stroke-opacity:1"
     id="path4538-0-5-5-8-8-9"
     cx="15.900247"
     cy="2.4015326"
     rx="0.24990383"
     ry="0.66858578"
     transform="matrix(0.9536287,0.30098556,-0.16419019,0.9864287,0,0)" />
  <ellipse
     style="display:inline;fill:#000000;fill-opacity:1;fill-rule:evenodd;stroke:#000000;stroke-width:1.00498;stroke-linecap:butt;stroke-linejoin:round;stroke-miterlimit:4;stroke-dasharray:none;stroke-dashoffset:0;stroke-opacity:1"
     id="path4538-0-5-5-8-8-3"
     cx="-18.087259"
     cy="10.732548"
     rx="0.24990383"
     ry="0.66858578"
     transform="matrix(-0.97988097,0.19958279,0.06010691,0.99819195,0,0)" />
  <path
     style="display:inline;fill:none;stroke:#000000;stroke-width:1;stroke-linecap:round;stroke-linejoin:miter;stroke-miterlimit:4;stroke-dasharray:none;stroke-opacity:1"
     d="m 18.035522,3.8214705 c 1.22001,-3.14593996 5.37447,-3.95772996 4.91862,-2.85178996 -0.76084,1.84586996 -0.0997,2.91893996 -0.0997,2.91893996"
     id="path4589-4-6"
     inkscape:connector-curvature="0"
     sodipodi:nodetypes="csc" />
  <path
     style="display:inline;fill:none;stroke:#000000;stroke-width:1;stroke-linecap:round;stroke-linejoin:miter;stroke-miterlimit:4;stroke-dasharray:none;stroke-opacity:1"
     d="m 15.283702,4.0078005 c -1.46414,-3.04000996 -5.6696598,-3.52186996 -5.12807,-2.4553 0.90395,1.78017 0.32942,2.90201 0.32942,2.90201"
     id="path4589-4-6-0"
     inkscape:connector-curvature="0"
     sodipodi:nodetypes="csc" />
</svg>
