<?xml version="1.0" encoding="UTF-8" standalone="no"?>
<!-- Created with Inkscape (http://www.inkscape.org/) -->

<svg
   width="62.529358mm"
   height="30.059969mm"
   viewBox="0 0 62.529358 30.059969"
   version="1.1"
   id="svg5"
   sodipodi:docname="pig-welcome.svg"
   inkscape:version="1.1.2 (0a00cf5339, 2022-02-04)"
   xmlns:inkscape="http://www.inkscape.org/namespaces/inkscape"
   xmlns:sodipodi="http://sodipodi.sourceforge.net/DTD/sodipodi-0.dtd"
   xmlns="http://www.w3.org/2000/svg"
   xmlns:svg="http://www.w3.org/2000/svg">
  <sodipodi:namedview
     id="namedview43"
     pagecolor="#ffffff"
     bordercolor="#666666"
     borderopacity="1.0"
     inkscape:pageshadow="2"
     inkscape:pageopacity="0.0"
     inkscape:pagecheckerboard="0"
     inkscape:document-units="mm"
     showgrid="false"
     inkscape:zoom="4.2597917"
     inkscape:cx="97.774734"
     inkscape:cy="61.974861"
     inkscape:window-width="2560"
     inkscape:window-height="1379"
     inkscape:window-x="0"
     inkscape:window-y="0"
     inkscape:window-maximized="1"
     inkscape:current-layer="svg5"
     fit-margin-top="0"
     fit-margin-left="0"
     fit-margin-right="0"
     fit-margin-bottom="0" />
  <defs
     id="defs2">
    <mask
       maskUnits="userSpaceOnUse"
       id="mask-powermask-path-effect54468-7">
      <path
         id="mask-powermask-path-effect54468-7_box"
         style="fill:#ffffff;fill-opacity:1"
         d="m 567.47221,99.3803 h 58.41444 v 25.98878 h -58.41444 z" />
      <path
         id="path55561"
         style="fill:#ffffff;fill-opacity:1"
         d="m 567.47221,99.3803 h 58.41444 v 25.98878 h -58.41444 z" />
      <path
         style="fill:#000000;stroke:#000000;stroke-width:0.999998;stroke-linecap:round;stroke-linejoin:round;stroke-miterlimit:4;stroke-dasharray:none;stroke-opacity:1"
         d="m 574.07829,109.99486 c 0,0 -1.82613,-2.03173 -2.46497,-0.61412 -0.63884,1.41763 1.59121,1.97411 1.59121,1.97411 0,0 -0.6598,0.16658 -1.26567,0.87242 -0.60589,0.70581 0.55264,3.44441 1.73213,1.88666 1.17951,-1.55776 1.09611,-1.68279 1.09611,-1.68279 0,0 0.16878,1.52978 1.02299,1.83712 0.8542,0.30735 2.36593,-0.72048 1.50659,-2.03147 -0.31065,-0.47388 -0.59378,-0.87269 -0.59378,-0.87269 0,0 1.8066,-0.0121 2.00207,-0.85604 0.19548,-0.8439 -0.31681,-2.08264 -1.14387,-2.27993 -0.62701,-0.14957 -1.55408,1.15088 -1.55408,1.15088 0,0 0.39216,-1.29876 -0.56367,-1.83784 -0.95591,-0.53909 -1.46452,-0.39259 -1.84169,0.0928 -0.49265,0.63393 0.47663,2.36093 0.47663,2.36093 z"
         id="path55563" />
    </mask>
    <filter
       id="mask-powermask-path-effect54468-7_inverse"
       style="color-interpolation-filters:sRGB"
       height="100"
       width="100"
       x="-50"
       y="-50">
      <feColorMatrix
         id="mask-powermask-path-effect54468-7_primitive1"
         values="1"
         type="saturate"
         result="fbSourceGraphic" />
      <feColorMatrix
         id="mask-powermask-path-effect54468-7_primitive2"
         values="-1 0 0 0 1 0 -1 0 0 1 0 0 -1 0 1 0 0 0 1 0 "
         in="fbSourceGraphic" />
    </filter>
  </defs>
  <path
     style="display:inline;fill:none;stroke:#000000;stroke-width:1.2;stroke-linecap:round;stroke-linejoin:round;stroke-miterlimit:4;stroke-dasharray:none;stroke-opacity:1"
     d="m 19.806698,4.7122227 c 0,0 -9.34328,0.22586 -12.5742604,5.5411603 -3.23098,5.31523 -2.1626,8.77525 -0.83474,11.62632 0.22264,0.47634 0.36345,0.91159 0.45129,1.33219 0.27881,1.33498 0.024,2.52232 0.15844,4.4071 0.17676,2.4786 3.7419304,2.17493 4.3905504,-0.58903 0.16912,-0.72066 0.7296,-2.28625 1.09121,-2.15944 0.7973,0.27962 4.25366,0.36465 5.26773,0.31928 1.37172,-0.0614 3.62813,0.21567 6.98525,-0.5546"
     id="path890-3"
     inkscape:connector-curvature="0"
     sodipodi:nodetypes="cccsssssc" />
  <path
     style="display:inline;fill:none;stroke:#000000;stroke-width:1.2;stroke-linecap:round;stroke-linejoin:round;stroke-miterlimit:4;stroke-dasharray:none;stroke-opacity:1"
     d="m 16.266588,25.299523 c 0,0 0.48579,3.02395 -1.77174,3.52225 -1.7315,0.38218 -2.34359,-2.51506 -2.34359,-2.51506"
     id="path915-6"
     inkscape:connector-curvature="0"
     sodipodi:nodetypes="ccc" />
  <path
     sodipodi:nodetypes="csczc"
     inkscape:connector-curvature="0"
     id="path4620-6-4-75"
     d="m 5.3605776,13.643753 c 0,0 -2.32945,0.66987 -2.90014,-0.96427 -0.57067,-1.63415 0.69984,-2.9904103 1.41127,-1.92541 0.71146,1.06497 -1.02068,2.91025 -2.51954,1.8991 -1.49885003,-1.01114 -0.29195,-3.4297003 -0.29195,-3.4297003"
     style="display:inline;fill:none;stroke:#000000;stroke-width:1.2;stroke-linecap:round;stroke-linejoin:miter;stroke-miterlimit:4;stroke-dasharray:none;stroke-opacity:1" />
  <path
     style="display:inline;fill:none;stroke:#000000;stroke-width:1.2;stroke-linecap:round;stroke-linejoin:round;stroke-miterlimit:4;stroke-dasharray:none;stroke-opacity:1"
     d="m 24.966058,24.679963 c 0.21101,2.2187 0.64897,3.69119 2.13117,4.04217 1.01184,0.2396 2.48914,0.0214 2.53783,-1.81397 0.0482,-1.81853 -0.69041,-4.53495 -0.69041,-4.53495 0,0 2.09905,-1.5078 4.0077,-3.68628 1.90865,-2.17849 2.40364,-7.17989 0.27038,-10.2013303 -1.35615,-1.9208 -2.24815,-3.79492 -2.24815,-3.79492 0,0 -0.14567,-1.60956 0.87853,-3.43507 0.41537,-0.79296002 -2.71292,-1.70956002 -4.83345,2.84798"
     id="path934-3"
     inkscape:connector-curvature="0"
     sodipodi:nodetypes="casczcccc" />
  <path
     sodipodi:nodetypes="czc"
     inkscape:connector-curvature="0"
     id="path4589-0-56"
     d="m 24.246688,4.9176527 c -1.73941,-4.06369002 -6.64093,-3.40824 -5.09938,-2.243 1.54155,1.16524 1.02268,2.899 1.02268,2.899"
     style="display:inline;fill:none;stroke:#000000;stroke-width:1.2;stroke-linecap:round;stroke-linejoin:miter;stroke-miterlimit:4;stroke-dasharray:none;stroke-opacity:1" />
  <path
     style="display:inline;fill:none;stroke:#000000;stroke-width:1.2;stroke-linecap:round;stroke-linejoin:round;stroke-miterlimit:4;stroke-dasharray:none;stroke-opacity:1"
     d="m 26.608778,4.1216827 -2.36345,0.18953"
     id="path988-2"
     inkscape:connector-curvature="0"
     sodipodi:nodetypes="cc" />
  <path
     style="display:inline;fill:none;stroke:#000000;stroke-width:1.2;stroke-linecap:round;stroke-linejoin:round;stroke-miterlimit:4;stroke-dasharray:none;stroke-opacity:1"
     d="m 32.955838,19.017543 c 2.66952,-0.29952 4.85143,0.38543 4.2845,2.06537 -0.3453,1.02321 -2.73967,1.76556 -7.75285,0.90606"
     id="path990-9"
     inkscape:connector-curvature="0"
     sodipodi:nodetypes="csc" />
  <path
     sodipodi:nodetypes="zzzsz"
     inkscape:connector-curvature="0"
     id="path4536-9-9"
     d="m 30.218708,11.994313 c -2.40807,-0.23756 -5.32158,0.60278 -5.61097,2.90538 -0.28936,2.30261 1.70941,3.81367 5.01046,3.32043 3.30105,-0.49323 4.08881,-2.14615 4.09877,-3.51042 0.01,-1.36426 -1.09019,-2.47788 -3.49826,-2.71539 z"
     style="display:inline;fill:none;stroke:#000000;stroke-width:1.2;stroke-linecap:round;stroke-linejoin:miter;stroke-miterlimit:4;stroke-dasharray:none;stroke-opacity:1" />
  <ellipse
     cy="15.193933"
     cx="-27.766537"
     id="path4570-9-0-3"
     style="display:inline;fill:#000000;fill-opacity:1;fill-rule:nonzero;stroke:#000000;stroke-width:1;stroke-linecap:butt;stroke-linejoin:round;stroke-miterlimit:4;stroke-dasharray:none;stroke-dashoffset:0;stroke-opacity:1"
     rx="0.32161644"
     ry="0.35886648"
     transform="scale(-1,1)" />
  <ellipse
     cy="14.94018"
     cx="-30.762814"
     id="path4570-9-0-8-6"
     style="display:inline;fill:#000000;fill-opacity:1;fill-rule:nonzero;stroke:#000000;stroke-width:1;stroke-linecap:butt;stroke-linejoin:round;stroke-miterlimit:4;stroke-dasharray:none;stroke-dashoffset:0;stroke-opacity:1"
     rx="0.32161644"
     ry="0.35886648"
     transform="scale(-1,1)" />
  <path
     style="display:inline;fill:none;stroke:#000000;stroke-width:1.2;stroke-linecap:round;stroke-linejoin:round;stroke-miterlimit:4;stroke-dasharray:none;stroke-opacity:1"
     d="m 30.797598,9.4737427 c -0.33414,-1.44638 -1.93436,-1.42323 -1.78193,0.12205"
     id="path1049-0"
     inkscape:connector-curvature="0" />
  <path
     style="display:inline;fill:none;stroke:#000000;stroke-width:1.2;stroke-linecap:round;stroke-linejoin:round;stroke-miterlimit:4;stroke-dasharray:none;stroke-opacity:1"
     d="m 26.749488,9.9762827 c -0.67172,-1.32316 -2.21929,-0.91442 -1.70019,0.5486003"
     id="path1049-4-6"
     inkscape:connector-curvature="0" />
  <path
     style="fill:#000000;stroke:#000000;stroke-width:1.2;stroke-linecap:round;stroke-linejoin:round;stroke-miterlimit:4;stroke-dasharray:none;stroke-opacity:1"
     d="m 35.857038,17.974833 c 0.59291,0.7118 0.72071,2.2643 3.69461,2.19813 2.97389,-0.0661 7.09928,0.0515 8.03421,-1.01727 0.93493,-1.06879 0.97424,-1.40438 0.41853,-1.09615 -0.69358,0.3847 -12.14735,0.78509 -12.14735,-0.0847 z"
     id="path7211"
     sodipodi:nodetypes="ssssss" />
  <path
     style="fill:none;stroke:#000000;stroke-width:1;stroke-linecap:round;stroke-linejoin:round;stroke-miterlimit:4;stroke-dasharray:none;stroke-opacity:1"
     d="m 35.742298,16.506433 c -0.0268,0.61933 1.12924,0.85784 1.76477,0.85784 0.63556,0 2.3046,0.0362 2.29928,-0.60849 0.008,-0.72551 -1.08536,-1.58975 -1.92818,-1.64358 -0.84849,-0.0542 -2.18548,0.6499 -2.13587,1.39423 z"
     id="path8679"
     sodipodi:nodetypes="cscac" />
  <path
     style="fill:none;stroke:#000000;stroke-width:1;stroke-linecap:round;stroke-linejoin:round;stroke-miterlimit:4;stroke-dasharray:none;stroke-opacity:1"
     d="m 40.328858,16.515043 c -0.0268,0.61933 1.12924,0.85784 1.76477,0.85784 0.63556,0 2.3046,0.0362 2.29928,-0.60849 0.008,-0.72551 -1.08536,-1.58975 -1.92818,-1.64358 -0.84849,-0.0542 -2.18548,0.6499 -2.13587,1.39423 z"
     id="path8679-3"
     sodipodi:nodetypes="cscac" />
  <path
     style="fill:none;stroke:#000000;stroke-width:1;stroke-linecap:round;stroke-linejoin:round;stroke-miterlimit:4;stroke-dasharray:none;stroke-opacity:1"
     d="m 44.642358,16.438123 c -0.0268,0.61933 1.12924,0.85784 1.76477,0.85784 0.63556,0 2.3046,0.0362 2.29928,-0.60849 0.008,-0.72551 -1.08536,-1.58975 -1.92818,-1.64358 -0.84849,-0.0542 -2.18548,0.6499 -2.13587,1.39423 z"
     id="path8679-6"
     sodipodi:nodetypes="cscac" />
  <path
     style="fill:none;stroke:#000000;stroke-width:1;stroke-linecap:round;stroke-linejoin:round;stroke-miterlimit:4;stroke-dasharray:none;stroke-opacity:1"
     d="m 37.742078,13.718293 c -0.0268,0.61933 1.12924,0.85784 1.76477,0.85784 0.63556,0 2.3046,0.0362 2.29928,-0.60849 0.008,-0.72551 -1.08536,-1.58975 -1.92818,-1.64358 -0.84849,-0.0542 -2.18548,0.6499 -2.13587,1.39423 z"
     id="path8679-1"
     sodipodi:nodetypes="cscac" />
  <path
     style="fill:none;stroke:#000000;stroke-width:1;stroke-linecap:round;stroke-linejoin:round;stroke-miterlimit:4;stroke-dasharray:none;stroke-opacity:1"
     d="m 42.127098,13.641113 c -0.0268,0.61933 1.12924,0.85784 1.76477,0.85784 0.63556,0 2.3046,0.0362 2.29928,-0.60849 0.008,-0.72551 -1.08536,-1.58975 -1.92818,-1.64358 -0.84849,-0.0542 -2.18548,0.6499 -2.13587,1.39423 z"
     id="path8679-0"
     sodipodi:nodetypes="cscac" />
  <path
     style="fill:none;stroke:#000000;stroke-width:1;stroke-linecap:round;stroke-linejoin:round;stroke-miterlimit:4;stroke-dasharray:none;stroke-opacity:1"
     d="m 53.415516,19.833363 c -1.27536,0.29923 -3.38221,1.39432 -3.53464,3.66472 -0.13734,2.04587 1.38473,5.79996 1.38473,5.79996 1.98084,0.25999 4.44198,0.36071 6.3927,0.1389 0,0 1.50551,-3.88473 1.50101,-5.17991 -0.005,-1.45556 0.57607,-2.79228 -3.33006,-4.22138 -0.26695,-0.37641 -0.26617,-3.70056 -0.26617,-3.70056 -0.38958,-0.22096 -0.93479,-0.72138 -1.92739,0.0745 0,0 0.0438,3.16502 -0.22018,3.42373 z"
     id="path10497"
     sodipodi:nodetypes="csccsccccc" />
  <path
     style="fill:none;stroke:#000000;stroke-width:1;stroke-linecap:round;stroke-linejoin:round;stroke-miterlimit:4;stroke-dasharray:none;stroke-opacity:1"
     d="m 59.067316,21.957693 c 0.56757,-0.61773 2.18339,-1.44877 2.71702,-0.11742 0.53361,1.33139 0.1179,3.14205 -0.55038,3.67122 -0.6682,0.52918 -2.22466,0.16794 -2.22466,0.16794"
     id="path13120"
     sodipodi:nodetypes="cssc" />
  <path
     style="fill:none;stroke:#000000;stroke-width:0.8;stroke-linecap:round;stroke-linejoin:round;stroke-miterlimit:4;stroke-dasharray:none;stroke-opacity:1"
     d="m 50.428896,22.454983 c 1.80392,0.53581 6.75149,0.56129 8.23886,-4.1e-4"
     id="path13598"
     sodipodi:nodetypes="cc" />
  <path
     style="fill:none;stroke:#000000;stroke-width:0.8;stroke-linecap:round;stroke-linejoin:round;stroke-miterlimit:4;stroke-dasharray:none;stroke-opacity:1"
     d="m 50.224636,24.456243 c 2.31596,0.94362 7.27055,0.66417 8.44779,-0.0184"
     id="path13600"
     sodipodi:nodetypes="cc" />
  <path
     style="fill:none;stroke:#000000;stroke-width:0.8;stroke-linecap:round;stroke-linejoin:round;stroke-miterlimit:4;stroke-dasharray:none;stroke-opacity:1"
     d="m 50.458776,26.684953 c 1.84895,0.92419 7.14504,0.7852 7.85104,0.007"
     id="path13602"
     sodipodi:nodetypes="cc" />
  <path
     style="fill:none;stroke:#000000;stroke-width:0.8;stroke-linecap:round;stroke-linejoin:round;stroke-miterlimit:4;stroke-dasharray:none;stroke-opacity:1"
     d="m 52.765586,20.228763 c -0.39496,1.83351 -0.009,7.68286 0.49293,8.92111"
     id="path13604"
     sodipodi:nodetypes="cc" />
  <path
     style="fill:none;stroke:#000000;stroke-width:0.8;stroke-linecap:round;stroke-linejoin:round;stroke-miterlimit:4;stroke-dasharray:none;stroke-opacity:1"
     d="m 56.441016,20.486053 c 0.43787,2.09721 -0.18591,6.69912 -1.01074,8.7703"
     id="path13606"
     sodipodi:nodetypes="cc" />
  <path
     style="fill:none;stroke:#000000;stroke-width:1;stroke-linecap:round;stroke-linejoin:round;stroke-miterlimit:4;stroke-dasharray:none;stroke-opacity:1"
     d="m 53.641876,16.489143 c 0.4623,0.71823 1.29202,0.96439 1.93002,-0.0214"
     id="path14738"
     sodipodi:nodetypes="cc" />
</svg>
