<?xml version="1.0" encoding="UTF-8" standalone="no"?>
<!-- Created with Inkscape (http://www.inkscape.org/) -->

<svg
   width="44.708485mm"
   height="28.169449mm"
   viewBox="0 0 44.708485 28.169446"
   version="1.1"
   id="svg1"
   inkscape:version="1.4.3 (0d15f75042, 2025-12-25)"
   sodipodi:docname="pig-refreshments.svg"
   xmlns:inkscape="http://www.inkscape.org/namespaces/inkscape"
   xmlns:sodipodi="http://sodipodi.sourceforge.net/DTD/sodipodi-0.dtd"
   xmlns="http://www.w3.org/2000/svg"
   xmlns:svg="http://www.w3.org/2000/svg">
  <sodipodi:namedview
     id="namedview1"
     pagecolor="#ffffff"
     bordercolor="#666666"
     borderopacity="1.0"
     inkscape:showpageshadow="2"
     inkscape:pageopacity="0.0"
     inkscape:pagecheckerboard="0"
     inkscape:deskcolor="#d1d1d1"
     inkscape:document-units="mm"
     inkscape:zoom="5.901167"
     inkscape:cx="104.80978"
     inkscape:cy="66.766455"
     inkscape:window-width="1934"
     inkscape:window-height="1139"
     inkscape:window-x="0"
     inkscape:window-y="0"
     inkscape:window-maximized="0"
     inkscape:current-layer="layer1" />
  <defs
     id="defs1" />
  <g
     inkscape:label="Layer 1"
     inkscape:groupmode="layer"
     id="layer1"
     transform="translate(-53.385684,-147.36899)">
    <path
       sodipodi:nodetypes="czc"
       inkscape:connector-curvature="0"
       id="path4589-0-5-2"
       d="m 74.383203,152.14863 c -0.98947,-3.85935 -5.5988,-4.21398 -4.3366,-2.83954 1.26222,1.37444 0.63059,3.18605 0.63059,3.18605"
       style="display:inline;fill:none;stroke:#000000;stroke-width:1.2;stroke-linecap:round;stroke-linejoin:miter;stroke-miterlimit:4;stroke-dasharray:none;stroke-opacity:1" />
    <path
       style="display:inline;fill:none;stroke:#000000;stroke-width:1.2;stroke-linecap:round;stroke-linejoin:round;stroke-miterlimit:4;stroke-dasharray:none;stroke-opacity:1"
       d="m 76.089003,155.96325 c 0.0162,-1.19436 1.28134,-1.45026 1.42525,-0.20928"
       id="path1049-5-0"
       inkscape:connector-curvature="0" />
    <path
       sodipodi:nodetypes="csczc"
       inkscape:connector-curvature="0"
       id="path4620-6-4-2-5"
       d="m 58.264783,169.46249 c 0,0 -1.88649,0.77215 -2.53394,-0.3937 -0.64743,-1.16587 0.27938,-2.33368 0.98634,-1.61284 0.70697,0.72082 -0.55697,2.31011 -1.91941,1.72023 -1.36243,-0.58986 -0.59846,-2.55084 -0.59846,-2.55084"
       style="display:inline;fill:none;stroke:#000000;stroke-width:1.2;stroke-linecap:round;stroke-linejoin:miter;stroke-miterlimit:4;stroke-dasharray:none;stroke-opacity:1" />
    <path
       style="display:inline;fill:none;stroke:#000000;stroke-width:1.2;stroke-linecap:round;stroke-linejoin:round;stroke-miterlimit:4;stroke-dasharray:none;stroke-opacity:1"
       d="m 70.615693,151.0785 c -4.71287,0.87274 -8.33449,5.32776 -10.62569,9.48643 -1.28992,2.34127 -1.75043,4.68894 -1.31843,7.91016 0.28893,2.15443 1.95851,5.48574 5.60467,6.18484 2.4107,0.46222 7.27168,0.59849 7.65121,-1.66507 0.31213,-1.86154 -3.14098,-2.03987 -4.43547,-1.94998"
       id="path952-8"
       inkscape:connector-curvature="0"
       sodipodi:nodetypes="casssc" />
    <path
       style="display:inline;fill:none;stroke:#000000;stroke-width:1.2;stroke-linecap:round;stroke-linejoin:round;stroke-miterlimit:4;stroke-dasharray:none;stroke-opacity:1"
       d="m 71.508283,171.63686 c 1.5535,-1.00226 3.07575,-2.78376 3.07575,-2.78376 0,0 0.54339,1.16673 1.00065,3.63319 0.45727,2.46646 4.19439,2.59503 3.79255,0.0518 -0.40184,-2.54319 -0.60367,-4.95179 0.0815,-6.03848 0,0 2.29529,-3.04478 2.60722,-4.10535"
       id="path954-67"
       inkscape:connector-curvature="0"
       sodipodi:nodetypes="cczzcc" />
    <path
       style="display:inline;fill:none;stroke:#000000;stroke-width:1.2;stroke-linecap:round;stroke-linejoin:round;stroke-miterlimit:4;stroke-dasharray:none;stroke-opacity:1"
       d="m 72.548003,171.18781 c 2.62648,0.39997 2.06938,3.46276 -1.27288,3.08863"
       id="path956-0"
       inkscape:connector-curvature="0"
       sodipodi:nodetypes="cc" />
    <path
       style="display:inline;fill:none;stroke:#000000;stroke-width:1.2;stroke-linecap:round;stroke-linejoin:miter;stroke-miterlimit:4;stroke-dasharray:none;stroke-opacity:1"
       d="m 80.255123,157.8412 c -2.38287,-0.0243 -5.1482,0.85091 -5.19127,2.71785 -0.0431,1.86693 2.07191,2.94099 5.25294,2.31744 3.18104,-0.62354 3.77996,-2.00376 3.64734,-3.09875 -0.13262,-1.09499 -1.32615,-1.91228 -3.70901,-1.93654 z"
       id="path4536-6-7"
       inkscape:connector-curvature="0"
       sodipodi:nodetypes="zzzsz" />
    <ellipse
       ry="0.28872243"
       rx="0.25531372"
       style="display:inline;fill:#000000;fill-opacity:1;fill-rule:evenodd;stroke:#000000;stroke-width:1;stroke-linecap:butt;stroke-linejoin:round;stroke-miterlimit:4;stroke-dasharray:none;stroke-dashoffset:0;stroke-opacity:1"
       id="path4570-3-8"
       cx="-81.304047"
       cy="160.04323"
       transform="scale(-1,1)" />
    <circle
       r="0.28872243"
       style="display:inline;fill:#000000;fill-opacity:1;fill-rule:evenodd;stroke:#000000;stroke-width:1;stroke-linecap:butt;stroke-linejoin:round;stroke-miterlimit:4;stroke-dasharray:none;stroke-dashoffset:0;stroke-opacity:1"
       id="path4570-9-7-2"
       cx="-78.493256"
       cy="160.43239"
       transform="scale(-1,1)" />
    <path
       style="display:inline;fill:none;stroke:#000000;stroke-width:1.2;stroke-linecap:round;stroke-linejoin:round;stroke-miterlimit:4;stroke-dasharray:none;stroke-opacity:1"
       d="m 76.109243,151.05847 c 0.6801,-3.61397 5.11918,-3.50598 3.78181,-2.37703 -0.59855,0.50532 -0.76528,1.33647 -0.61375,2.22827 2.90336,0.69686 4.65277,3.55356 4.08243,7.09652"
       id="path1096-9"
       inkscape:connector-curvature="0"
       sodipodi:nodetypes="cscc" />
    <path
       style="display:inline;fill:none;stroke:#000000;stroke-width:1.2;stroke-linecap:round;stroke-linejoin:round;stroke-miterlimit:4;stroke-dasharray:none;stroke-opacity:1"
       d="m 76.009123,150.29385 c 0,0 -1.36753,-0.13234 -2.38216,0.13234"
       id="path1145"
       inkscape:connector-curvature="0" />
    <path
       style="display:inline;fill:none;stroke:#000000;stroke-width:1.2;stroke-linecap:round;stroke-linejoin:round;stroke-miterlimit:4;stroke-dasharray:none;stroke-opacity:1"
       d="m 79.771783,155.67621 c 0.0162,-1.19436 1.28134,-1.45026 1.42525,-0.20928"
       id="path1049-5-0-4"
       inkscape:connector-curvature="0" />
    <path
       style="display:inline;fill:none;stroke:#000000;stroke-width:1.2;stroke-linecap:round;stroke-linejoin:round;stroke-miterlimit:4;stroke-dasharray:none;stroke-opacity:1"
       d="m 79.163263,168.22939 c 1.42264,0.28252 4.41398,1.39744 5.46983,-0.65211 1.01261,-1.96562 -3.21773,-2.11693 -4.21105,-2.30828"
       id="path958-9"
       inkscape:connector-curvature="0"
       sodipodi:nodetypes="csc" />
    <path
       style="display:inline;fill:none;stroke:#000000;stroke-width:1.2;stroke-linecap:round;stroke-linejoin:round;stroke-miterlimit:4;stroke-dasharray:none;stroke-opacity:1"
       d="m 82.838553,170.12267 c 0.57348,1.49987 2.01075,3.44067 3.51063,4.32295 l 7.66652,-0.1903 c 1.32342,-0.92639 3.0815,-3.54717 3.47852,-4.38534 -2.95564,1.05874 -11.21477,0.95851 -14.65567,0.25269 z"
       id="path1177"
       inkscape:connector-curvature="0"
       sodipodi:nodetypes="ccccc" />
    <path
       style="display:inline;fill:none;stroke:#000000;stroke-width:1;stroke-linecap:round;stroke-linejoin:round;stroke-miterlimit:4;stroke-dasharray:none;stroke-opacity:1"
       d="m 84.013873,170.09283 c 0,0 1.69177,-1.22925 2.44832,-1.25725 0.75656,-0.028 1.30137,0.63965 1.30137,0.63965 0,0 0.89901,-1.24344 1.63222,-1.43371 0.73321,-0.19026 1.56604,0.26469 1.56604,0.26469 0,0 1.09486,-0.74165 1.74251,-0.79405 0.64765,-0.0524 1.49988,0.97051 1.49988,0.97051 0,0 1.93209,-0.52354 2.44832,0.0662 0.51624,0.5897 0.26469,1.49987 0.26469,1.49987"
       id="path1179"
       inkscape:connector-curvature="0"
       sodipodi:nodetypes="czczczczc" />
    <path
       style="display:inline;fill:none;stroke:#000000;stroke-width:1;stroke-linecap:round;stroke-linejoin:round;stroke-miterlimit:4;stroke-dasharray:none;stroke-opacity:1"
       d="m 89.421723,169.42349 c 0.18717,-0.0624 0.70185,-0.15596 0.85782,-0.0624"
       id="path1181"
       inkscape:connector-curvature="0"
       sodipodi:nodetypes="cc" />
    <path
       style="display:inline;fill:none;stroke:#000000;stroke-width:1;stroke-linecap:round;stroke-linejoin:round;stroke-miterlimit:4;stroke-dasharray:none;stroke-opacity:1"
       d="m 92.408903,169.29226 c 0.23395,-0.10918 0.49576,-0.20165 0.77651,-0.13926"
       id="path1183"
       inkscape:connector-curvature="0"
       sodipodi:nodetypes="cc" />
    <path
       style="display:inline;fill:none;stroke:#000000;stroke-width:1.2;stroke-linecap:round;stroke-linejoin:round;stroke-miterlimit:4;stroke-dasharray:none;stroke-opacity:1"
       d="m 83.991813,164.13743 c 0,0.1544 2.24982,4.63197 2.24982,4.63197"
       id="path1185"
       inkscape:connector-curvature="0" />
  </g>
</svg>
