<?xml version="1.0" encoding="UTF-8" standalone="no"?>
<!-- Created with Inkscape (http://www.inkscape.org/) -->

<svg
   width="63.036655mm"
   height="36.882023mm"
   viewBox="0 0 63.036656 36.882023"
   version="1.1"
   id="svg5"
   sodipodi:docname="pig-photo.svg"
   inkscape:version="1.1.2 (0a00cf5339, 2022-02-04)"
   xmlns:inkscape="http://www.inkscape.org/namespaces/inkscape"
   xmlns:sodipodi="http://sodipodi.sourceforge.net/DTD/sodipodi-0.dtd"
   xmlns="http://www.w3.org/2000/svg"
   xmlns:svg="http://www.w3.org/2000/svg">
  <sodipodi:namedview
     id="namedview43"
     pagecolor="#ffffff"
     bordercolor="#666666"
     borderopacity="1.0"
     inkscape:pageshadow="2"
     inkscape:pageopacity="0.0"
     inkscape:pagecheckerboard="0"
     inkscape:document-units="mm"
     showgrid="false"
     inkscape:zoom="4.2597917"
     inkscape:cx="152.47224"
     inkscape:cy="35.682496"
     inkscape:window-width="2560"
     inkscape:window-height="1379"
     inkscape:window-x="0"
     inkscape:window-y="0"
     inkscape:window-maximized="1"
     inkscape:current-layer="svg5"
     fit-margin-top="0"
     fit-margin-left="0"
     fit-margin-right="0"
     fit-margin-bottom="0" />
  <defs
     id="defs2">
    <mask
       maskUnits="userSpaceOnUse"
       id="mask-powermask-path-effect54468-7">
      <path
         id="mask-powermask-path-effect54468-7_box"
         style="fill:#ffffff;fill-opacity:1"
         d="m 567.47221,99.3803 h 58.41444 v 25.98878 h -58.41444 z" />
      <path
         id="path55561"
         style="fill:#ffffff;fill-opacity:1"
         d="m 567.47221,99.3803 h 58.41444 v 25.98878 h -58.41444 z" />
      <path
         style="fill:#000000;stroke:#000000;stroke-width:0.999998;stroke-linecap:round;stroke-linejoin:round;stroke-miterlimit:4;stroke-dasharray:none;stroke-opacity:1"
         d="m 574.07829,109.99486 c 0,0 -1.82613,-2.03173 -2.46497,-0.61412 -0.63884,1.41763 1.59121,1.97411 1.59121,1.97411 0,0 -0.6598,0.16658 -1.26567,0.87242 -0.60589,0.70581 0.55264,3.44441 1.73213,1.88666 1.17951,-1.55776 1.09611,-1.68279 1.09611,-1.68279 0,0 0.16878,1.52978 1.02299,1.83712 0.8542,0.30735 2.36593,-0.72048 1.50659,-2.03147 -0.31065,-0.47388 -0.59378,-0.87269 -0.59378,-0.87269 0,0 1.8066,-0.0121 2.00207,-0.85604 0.19548,-0.8439 -0.31681,-2.08264 -1.14387,-2.27993 -0.62701,-0.14957 -1.55408,1.15088 -1.55408,1.15088 0,0 0.39216,-1.29876 -0.56367,-1.83784 -0.95591,-0.53909 -1.46452,-0.39259 -1.84169,0.0928 -0.49265,0.63393 0.47663,2.36093 0.47663,2.36093 z"
         id="path55563" />
    </mask>
    <filter
       id="mask-powermask-path-effect54468-7_inverse"
       style="color-interpolation-filters:sRGB"
       height="100"
       width="100"
       x="-50"
       y="-50">
      <feColorMatrix
         id="mask-powermask-path-effect54468-7_primitive1"
         values="1"
         type="saturate"
         result="fbSourceGraphic" />
      <feColorMatrix
         id="mask-powermask-path-effect54468-7_primitive2"
         values="-1 0 0 0 1 0 -1 0 0 1 0 0 -1 0 1 0 0 0 1 0 "
         in="fbSourceGraphic" />
    </filter>
  </defs>
  <path
     style="fill:none;stroke:#000000;stroke-width:1.2;stroke-linecap:round;stroke-linejoin:round;stroke-miterlimit:4;stroke-dasharray:none;stroke-opacity:1"
     d="m 30.680294,22.200793 c 3.091772,-0.51007 14.968595,0.39101 14.968595,0.39101 l -0.60318,-14.5968905 -15.401204,0.0935 z"
     id="path27821-9" />
  <path
     style="fill:none;stroke:#000000;stroke-width:1.2;stroke-linecap:round;stroke-linejoin:round;stroke-miterlimit:4;stroke-dasharray:none;stroke-opacity:1"
     d="m 45.398099,12.120463 c 0.89965,-0.004 3.57588,0.35935 3.57588,0.35935 l 0.37851,5.68654 -3.68671,0.2179"
     id="path27823-0" />
  <path
     style="fill:none;stroke:#000000;stroke-width:1.2;stroke-linecap:round;stroke-linejoin:round;stroke-miterlimit:4;stroke-dasharray:none;stroke-opacity:1"
     d="m 33.099019,35.242623 2.238767,-13.14471 3.686897,13.24076"
     id="path27825-9" />
  <path
     style="fill:none;stroke:#000000;stroke-width:1.2;stroke-linecap:butt;stroke-linejoin:miter;stroke-miterlimit:4;stroke-dasharray:none;stroke-opacity:1"
     d="m 29.644505,8.0884225 c -5.20681,-0.63741 -13.660269,1.73382 -16.134676,4.7328205 -2.474407,2.99895 0.741845,3.24465 1.432996,5.80601 0.691122,2.56142 2.955891,4.29393 4.497006,5.13047 1.541087,0.83652 4.977411,4.75045 5.15884,6.47079 0.181414,1.72038 4.594892,-3.50957 6.081623,-8.02772"
     id="path27827-1" />
  <path
     style="fill:none;stroke:#000000;stroke-width:1.2;stroke-linecap:round;stroke-linejoin:round;stroke-miterlimit:4;stroke-dasharray:none;stroke-opacity:1"
     d="m 13.293529,16.048033 c -2.485976,2.57509 -8.1784458,7.8355 -7.7353748,14.81227 0.408693,6.43532 10.2551508,5.52015 12.2254838,5.15024 1.970319,-0.36989 5.684188,-0.30008 5.686867,-1.54829 -0.02966,-1.94056 -1.391704,-1.86792 -2.705644,-1.80545 -1.723896,0.082 -3.694339,-1.23992 -5.341365,-1.0086"
     id="path27942-7"
     sodipodi:nodetypes="csscsc" />
  <path
     style="display:inline;fill:none;stroke:#000000;stroke-width:1.2;stroke-linecap:round;stroke-linejoin:miter;stroke-miterlimit:4;stroke-dasharray:none;stroke-opacity:1"
     d="m 4.9571792,31.025863 c 0,0 -2.238933,0.24897 -2.685339,-1.10636 -0.446348,-1.35532 0.83112,-2.27151 1.442778,-1.34763 0.611657,0.92388 -1.129678,2.17 -2.488394,1.19436 -1.35866496,-0.97565 -0.08097,-2.73613 -0.08097,-2.73613"
     id="path4620-4-7-4-7"
     inkscape:connector-curvature="0"
     sodipodi:nodetypes="csczc"
     inkscape:transform-center-x="0.058607479"
     inkscape:transform-center-y="-2.8079202" />
  <path
     style="fill:none;stroke:#000000;stroke-width:1.2;stroke-linecap:butt;stroke-linejoin:miter;stroke-miterlimit:4;stroke-dasharray:none;stroke-opacity:1"
     d="m 23.638614,28.125113 c -0.974257,0.88091 -1.602819,1.75155 -2.530069,2.48399 -0.717006,0.56638 -2.320732,1.45781 -2.320732,1.45781"
     id="path28779-1"
     sodipodi:nodetypes="cac" />
  <path
     style="fill:none;stroke:#000000;stroke-width:1.2;stroke-linecap:round;stroke-linejoin:round;stroke-miterlimit:4;stroke-dasharray:none;stroke-opacity:1"
     d="m 51.394279,10.743783 4.39236,-10.14400048 0.15204,8.27224998 5.08282,-1.01437 -4.15417,6.0605405 5.56941,6.89633 -5.15469,-0.82083 -1.08802,6.35287 -3.12429,-7.00498"
     id="path30708-1"
     sodipodi:nodetypes="ccccccccc" />
  <path
     style="fill:none;stroke:#000000;stroke-width:1;stroke-linecap:round;stroke-linejoin:round;stroke-miterlimit:4;stroke-dasharray:none;stroke-opacity:1"
     d="m 31.72195,10.818463 11.250519,-0.74676 -10.601774,3.0239 10.152684,-0.88315 -9.990296,3.41204 10.301876,-0.98842 -10.230455,3.19737 10.212625,-0.38847 -10.003247,2.49913 10.270007,0.0454"
     id="path31387"
     sodipodi:nodetypes="cccccccccc" />
  <path
     style="fill:none;stroke:#000000;stroke-width:0.799999;stroke-linecap:round;stroke-linejoin:round;stroke-miterlimit:4;stroke-dasharray:none;stroke-opacity:1"
     d="m 15.29542,14.949293 c 2.129955,-1.69168 9.59401,-4.4471 11.140963,-4.38799 1.546938,0.0592 -9.189496,5.30691 -9.118925,5.92082 0.07063,0.61391 8.212083,-3.3243 9.469069,-3.5909 1.256987,-0.26659 -6.332801,4.91568 -7.45088,5.90452 -1.118079,0.98885 7.491167,-3.97955 8.185879,-3.68651 0.694711,0.29304 -8.756486,5.20431 -7.725813,5.73117 1.030672,0.52687 7.295973,-4.1739 7.717856,-3.72951 0.421883,0.44437 -5.663214,5.26005 -5.442521,5.68155 0.220678,0.4215 5.238087,-3.35261 5.95282,-3.07854 0.714732,0.27407 -4.709397,4.18623 -4.585365,4.47067 0.124105,0.28445 3.03021,-1.53851 3.803088,-1.53851 0.772879,0 -2.22575,4.01774 -2.22575,4.01774"
     id="path31455" />
</svg>
