<?xml version="1.0" encoding="UTF-8" standalone="no"?>
<!-- Created with Inkscape (http://www.inkscape.org/) -->

<svg
   width="29.204361mm"
   height="45.6646mm"
   viewBox="0 0 29.204361 45.6646"
   version="1.1"
   id="svg5"
   inkscape:version="1.1.2 (0a00cf5339, 2022-02-04)"
   sodipodi:docname="pig-sign.svg"
   xmlns:inkscape="http://www.inkscape.org/namespaces/inkscape"
   xmlns:sodipodi="http://sodipodi.sourceforge.net/DTD/sodipodi-0.dtd"
   xmlns="http://www.w3.org/2000/svg"
   xmlns:svg="http://www.w3.org/2000/svg">
  <sodipodi:namedview
     id="namedview7"
     pagecolor="#ffffff"
     bordercolor="#666666"
     borderopacity="1.0"
     inkscape:pageshadow="2"
     inkscape:pageopacity="0.0"
     inkscape:pagecheckerboard="0"
     inkscape:document-units="mm"
     showgrid="false"
     fit-margin-top="0"
     fit-margin-left="0"
     fit-margin-right="0"
     fit-margin-bottom="0"
     inkscape:zoom="1.1794893"
     inkscape:cx="114.0324"
     inkscape:cy="139.04322"
     inkscape:window-width="2560"
     inkscape:window-height="1379"
     inkscape:window-x="0"
     inkscape:window-y="0"
     inkscape:window-maximized="1"
     inkscape:current-layer="layer1" />
  <defs
     id="defs2" />
  <g
     inkscape:label="Layer 1"
     inkscape:groupmode="layer"
     id="layer1"
     transform="translate(-5.1149732,-3.8274669)">
    <path
       sodipodi:nodetypes="zzcsz"
       inkscape:connector-curvature="0"
       id="path4751-4"
       d="m 20.717264,30.888037 c 1.60566,-0.0329 4.22162,0.0534 4.37859,2.60118 0.15697,2.54778 -2.28896,2.57626 -4.36208,2.73861 -2.07312,0.16237 -4.26246,-0.71652 -4.22771,-2.6884 0.0348,-1.97186 2.60555,-2.61845 4.2112,-2.65139 z"
       style="fill:none;stroke:#000000;stroke-width:1.08281;stroke-linecap:round;stroke-linejoin:round;stroke-miterlimit:4;stroke-dasharray:none;stroke-opacity:1" />
    <g
       id="g4614-3-3"
       style="display:inline"
       transform="rotate(-4.753093,-1236.6754,2157.176)">
      <ellipse
         transform="rotate(-20.429176)"
         cy="202.53282"
         cx="128.38039"
         id="path4570-7-7-0"
         style="opacity:1;fill:#000000;fill-opacity:1;fill-rule:evenodd;stroke:#000000;stroke-width:1;stroke-linecap:butt;stroke-linejoin:round;stroke-miterlimit:4;stroke-dasharray:none;stroke-dashoffset:0;stroke-opacity:1"
         rx="0.25531372"
         ry="0.28872243" />
    </g>
    <g
       id="g4614-9-7"
       style="display:inline"
       transform="rotate(-4.753093,-1237.1151,2121.2373)">
      <ellipse
         transform="rotate(-20.429176)"
         cy="202.53282"
         cx="128.38039"
         id="path4570-7-0-8"
         style="opacity:1;fill:#000000;fill-opacity:1;fill-rule:evenodd;stroke:#000000;stroke-width:1;stroke-linecap:butt;stroke-linejoin:round;stroke-miterlimit:4;stroke-dasharray:none;stroke-dashoffset:0;stroke-opacity:1"
         rx="0.25531372"
         ry="0.28872243" />
    </g>
    <ellipse
       style="display:inline;fill:#000000;fill-opacity:1;fill-rule:evenodd;stroke:#000000;stroke-width:1.00498;stroke-linecap:butt;stroke-linejoin:round;stroke-miterlimit:4;stroke-dasharray:none;stroke-dashoffset:0;stroke-opacity:1"
       id="path4538-0-5-5-8-8-6"
       cx="24.090372"
       cy="21.22702"
       rx="0.24990383"
       ry="0.66858578"
       transform="matrix(0.94546185,0.32573284,-0.18983861,0.98181531,0,0)" />
    <path
       style="display:inline;fill:none;stroke:#000000;stroke-width:1.2;stroke-linecap:round;stroke-linejoin:round;stroke-miterlimit:4;stroke-dasharray:none;stroke-opacity:1"
       d="m 23.620004,22.774387 c 1.96954,-2.80406 6.12524,-2.44504 5.34009,-1.56518 -1.32933,1.48964 -0.81143,3.20526 -0.81143,3.20526 3.26024,4.5441 3.99006,12.97288 1.99001,18.89067 l 2.75339,2.58076 c 2.24094,2.10043 -0.57619,3.44438 -2.46264,2.52847 -1.88645,-0.91592 -4.19479,-2.22144 -5.53208,-2.17729 -2.5151,0.31976 -4.46397,0.64128 -7.68865,0.17594 -1.32622,0.17732 -3.43659,1.44711 -5.36552,2.30098 -1.9175701,0.84884 -3.5790301,-1.4259 -1.76317,-2.85427 l 2.66384,-2.0954 c -0.56658,-1.50953 -0.93943,-3.1944 -1.1257,-4.9464 m 0.0339,-5.71936 c 0.38379,-3.32264 1.39684,-6.47434 2.99198,-8.74145 0,0 -0.51818,-1.05186 -2.07527,-2.3015 -0.91969,-0.73811 3.39815,-1.28016 5.80374,1.16011"
       id="path4589-4-8-8"
       inkscape:connector-curvature="0"
       sodipodi:nodetypes="csccssccsscccscc" />
    <path
       style="display:inline;fill:none;stroke:#000000;stroke-width:1.2;stroke-linecap:round;stroke-linejoin:round;stroke-miterlimit:4;stroke-dasharray:none;stroke-opacity:1"
       d="m 23.712104,22.774387 c -1.96715,-0.58983 -3.96438,-0.0919 -5.24752,0.44134"
       id="path4815-8"
       inkscape:connector-curvature="0" />
    <path
       style="display:inline;fill:none;stroke:#000000;stroke-width:1.2;stroke-linecap:round;stroke-linejoin:round;stroke-miterlimit:4;stroke-dasharray:none;stroke-opacity:1"
       d="m 11.525314,33.349617 c 0,0 -1.5696801,-0.35816 -4.0431701,-0.84739 -0.93066,-0.18407 -1.2322,0.39219 -1.52093,0.97083 -0.46338,0.92867 -0.36996,2.20456 1.14572,2.91691 2.5434,1.19538 4.4484701,2.06231 4.4484701,2.06231"
       id="path4832-3"
       inkscape:connector-curvature="0"
       sodipodi:nodetypes="ccscc" />
    <path
       style="display:inline;fill:none;stroke:#000000;stroke-width:1.2;stroke-linecap:round;stroke-linejoin:round;stroke-miterlimit:4;stroke-dasharray:none;stroke-opacity:1"
       d="m 25.735874,36.382517 c 0,0 -1.46492,1.9951 -2.12865,3.33547 -0.97732,1.49869 0.13262,3.05859 1.88137,2.15342 1.22767,-0.63546 4.37201,-4.65917 4.37201,-4.65917"
       id="path4834-1"
       inkscape:connector-curvature="0"
       sodipodi:nodetypes="cccc" />
    <ellipse
       transform="matrix(0.99330155,0.11555103,0.02497664,0.99968804,0,0)"
       ry="0.66858578"
       rx="0.24990383"
       cy="25.977194"
       cx="22.395639"
       id="path4538-0-5-5-8-1-9"
       style="display:inline;fill:#000000;fill-opacity:1;fill-rule:evenodd;stroke:#000000;stroke-width:1.00498;stroke-linecap:butt;stroke-linejoin:round;stroke-miterlimit:4;stroke-dasharray:none;stroke-dashoffset:0;stroke-opacity:1" />
    <path
       style="fill:none;stroke:#000000;stroke-width:1.2;stroke-linecap:round;stroke-linejoin:round;stroke-miterlimit:4;stroke-dasharray:none;stroke-opacity:1"
       d="m 6.5107939,35.735367 c 1.5759,0.25257 3.39324,-2.07279 1.45709,-3.17729"
       id="path28151"
       sodipodi:nodetypes="cc" />
    <path
       style="fill:none;stroke:#000000;stroke-width:1.5;stroke-linecap:round;stroke-linejoin:round;stroke-miterlimit:4;stroke-dasharray:none;stroke-opacity:1"
       d="m 7.7058639,42.978377 -0.0427,-7.03587"
       id="path28667" />
    <path
       style="fill:none;stroke:#000000;stroke-width:1.4675;stroke-linecap:round;stroke-linejoin:round;stroke-miterlimit:4;stroke-dasharray:none;stroke-opacity:1"
       d="M 7.7100939,32.373007 7.5545339,4.5612169"
       id="path28669" />
  </g>
</svg>
