<?xml version="1.0" encoding="UTF-8" standalone="no"?>
<!-- Created with Inkscape (http://www.inkscape.org/) -->

<svg
   width="40mm"
   height="30mm"
   viewBox="0 0 40 30"
   version="1.1"
   id="svg5"
   inkscape:version="1.1.2 (0a00cf5339, 2022-02-04)"
   sodipodi:docname="pig-computer.svg"
   xmlns:inkscape="http://www.inkscape.org/namespaces/inkscape"
   xmlns:sodipodi="http://sodipodi.sourceforge.net/DTD/sodipodi-0.dtd"
   xmlns="http://www.w3.org/2000/svg"
   xmlns:svg="http://www.w3.org/2000/svg">
  <sodipodi:namedview
     id="namedview7"
     pagecolor="#ffffff"
     bordercolor="#666666"
     borderopacity="1.0"
     inkscape:pageshadow="2"
     inkscape:pageopacity="0.0"
     inkscape:pagecheckerboard="0"
     inkscape:document-units="mm"
     showgrid="false"
     inkscape:zoom="3.24539"
     inkscape:cx="179.17723"
     inkscape:cy="146.97771"
     inkscape:window-width="2560"
     inkscape:window-height="1379"
     inkscape:window-x="0"
     inkscape:window-y="0"
     inkscape:window-maximized="1"
     inkscape:current-layer="layer1" />
  <defs
     id="defs2" />
  <g
     inkscape:label="Layer 1"
     inkscape:groupmode="layer"
     id="layer1">
    <path
       d="m 23.048621,1.3907993 c -0.31183,0.006 -0.64428,0.0617 -0.99477,0.15865 -0.99306,0.27457 -2.126,0.93412 -2.8934,2.0882 -0.57185,0.0481 -1.166,0.17945 -1.5312,0.2713 -0.35116,-0.32595 -0.78287,-0.56955 -1.2335,-0.74827 -0.81705,-0.32403 -1.7336,-0.4569 -2.5647,-0.47026 -0.8311,-0.0134 -1.552996,0.0672 -2.107396,0.33745 -0.27717,0.13514 -0.611,0.37207 -0.64854,0.82424 -0.0375,0.45217 0.26172,0.75936 0.56482,0.96686 1.0364,0.70949 1.560496,1.2925 1.822096,1.6681 0.0984,0.14129 0.13444,0.22292 0.17209,0.30282 -0.19304,0.19862 -0.46962,0.42042 -0.900726,1.2774 -0.5637,1.1206 -1.1226,2.8539007 -1.1715,5.3242007 a 0.60006,0.60006 0 0 0 0,0.0408 c 0.0144,0.30329 0.0403,0.58385 0.0765,0.86816 -0.47745,0.58759 -0.68426,1.2927 -0.55914,1.9637 0.12638,0.67771 0.542,1.4261 1.371,1.8867 0.13745,0.0764 0.2849,0.14524 0.442346,0.20619 0.15069,0.28126 0.31314,0.54749 0.48524,0.79996 -0.16375,0.23334 -0.50659,0.68001 -1.158096,1.4469 -0.48319,0.56881 -0.85521,1.1083 -1.1033,1.6097 -0.10193,0.20603 -0.18772,0.40606 -0.2465,0.60513 H 8.3372453 l -2.8148,-5.9392 a 0.60006,0.60006 0 0 0 -0.43563,-0.33383 0.60006,0.60006 0 0 0 -0.52296,0.15813 l -4.34810004,4.2049 a 0.60006,0.60006 0 0 0 -0.11885,0.70125 l 3.30630004,6.613 a 0.60006,0.60006 0 0 0 0.0124,0.0191 0.6,0.6 0 0 0 0.0434,0.0672 0.60006,0.60006 0 0 0 0.0289,0.0377 0.6,0.6 0 0 0 0.0563,0.0579 0.6,0.6 0 0 0 0.0114,0.009 0.60006,0.60006 0 0 0 0.0382,0.0284 0.6,0.6 0 0 0 0.0625,0.0387 0.60006,0.60006 0 0 0 0.0387,0.0207 0.6,0.6 0 0 0 0.10129,0.0351 0.60006,0.60006 0 0 0 0.0429,0.007 0.6,0.6 0 0 0 0.0713,0.008 0.60006,0.60006 0 0 0 0.0279,0.003 l 9.1657957,0.047 a 0.60006,0.60006 0 0 0 0.54518,-0.3421 l 0.67335,-1.4211 c 0.6738,0.10073 1.4719,-0.0173 2.3151,-0.35605 0.67175,-0.26985 1.2961,-0.624 1.8614,-1.0113 -0.34783,0.41691 -0.51483,0.91922 -0.46302,1.3942 0.0565,0.51824 0.33742,0.96151 0.71055,1.3028 0.74627,0.68248 1.893,1.0476 3.084,0.88625 a 0.6,0.6 0 0 0 0.0987,-0.0222 c 0.61585,0.35702 1.4501,0.53146 2.4231,0.49712 3.0666,-0.10822 6.3766,-1.2606 8.1814,-2.6112 0.88593,-0.66296 1.696,-1.456 2.3306,-2.6923 0.23096,0.002 0.63554,-0.005 1.0873,-0.0698 0.61292,-0.0877 1.3305,-0.31136 1.8691,-0.84336 0.12464,-0.0168 0.23173,0.0314 0.35967,-0.008 0.83509,-0.25805 1.288,-0.85008 1.3865,-1.3591 0.0985,-0.50901 -0.0801,-0.92604 -0.0801,-0.92604 a 0.6,0.6 0 0 0 -0.7829,-0.32814 0.6,0.6 0 0 0 -0.32814,0.78341 c 0,0 0.0381,0.11378 0.0134,0.24185 -7.9e-4,0.004 -0.0148,0.0103 -0.0155,0.0139 -0.0327,-0.20621 -0.0351,-0.42438 -0.14263,-0.59583 -0.1732,-0.27594 -0.45057,-0.50321 -0.79892,-0.57619 -0.34835,-0.073 -0.73716,0.0332 -1.0351,0.26613 -0.60254,0.47101 -0.68654,1.3337 -0.29662,1.9043 0.0216,0.0316 0.0714,0.0363 0.0956,0.0662 -0.16608,0.0501 -0.23682,0.14829 -0.41393,0.17363 -0.14256,0.0204 -0.28015,0.0342 -0.40617,0.0429 0.33254,-0.9709 0.58251,-2.1584 0.72243,-3.6463 0.48724,-5.1815 -2.1959,-9.4691007 -3.9434,-11.2910007 -1.6713,-1.7423 -4.2012,-3.0577 -7.9422,-4.0458 0.0307,-0.34967 0.11814,-0.75007 0.29972,-1.1906 0.11448,-0.27772 0.0949,-0.67104 -0.0899,-0.92965 -0.1848,-0.25861 -0.43866,-0.37283 -0.68575,-0.43977 -0.2162,-0.0586 -0.44631,-0.0834 -0.68884,-0.0786 z m 0.0465,1.2149 c 0.11582,10e-4 0.21041,0.0115 0.27698,0.0259 -0.1979,0.57616 -0.27505,1.1184 -0.28629,1.5952 a 0.6,0.6 0 0 0 -0.0512,0.11989 0.6,0.6 0 0 0 0.0682,0.44287 c 0.067,0.80329 0.29507,1.3167 0.29507,1.3167 a 0.6,0.6 0 0 0 0.81029,0.24598 0.6,0.6 0 0 0 0.24804,-0.81028 c 0,0 -0.0455,-0.081 -0.0982,-0.23048 3.3555,0.9372 5.5328,2.1346 6.9324,3.5936 1.5107,1.5748007 4.0573,5.6468007 3.6153,10.3480007 -0.40533,4.3104 -1.5145,5.5279 -3.0902,6.7071 -1.4814,1.1086 -4.7233,2.2707 -7.5055,2.3688 -1.3178,0.0465 -2.0449,-0.43028 -2.2133,-0.76171 -0.0842,-0.16571 -0.0907,-0.29418 0.0119,-0.4961 0.10262,-0.2019 0.35543,-0.47265 0.83767,-0.71468 a 0.60006,0.60006 0 0 0 0.0238,-0.0119 c 1.5885,-0.88883 3.1657,-1.2811 3.1657,-1.2811 a 0.6,0.6 0 0 0 0.43977,-0.7245 0.6,0.6 0 0 0 -0.72657,-0.43925 c 0,0 -1.2657,0.31434 -2.7306,1.0211 -0.19869,-0.0495 -0.60403,-0.16055 -1.0842,-0.34933 -0.27983,-0.11003 -0.57848,-0.24774 -0.86403,-0.40773 a 0.6,0.6 0 0 0 -0.29455,-0.17621 c -0.11978,-0.077 -0.23436,-0.15879 -0.3421,-0.2434 0.75574,-0.77483 1.1901,-1.3839 1.1901,-1.3839 a 0.6,0.6 0 0 0 -0.13281,-0.83768 0.6,0.6 0 0 0 -0.83768,0.13281 c 0,0 -1.9983,2.6844 -4.5625,3.7145 -1.2526,0.50318 -2.083,0.262 -2.342,-0.0269 -0.12951,-0.14445 -0.18453,-0.29903 -0.12868,-0.57619 0.0558,-0.27716 0.25751,-0.67043 0.70332,-1.1059 0.96365,-0.94125 1.4783,-1.521 1.7637,-1.8867 0.1427,-0.18284 0.22713,-0.31252 0.28474,-0.41393 0.0288,-0.0507 0.0513,-0.0947 0.0687,-0.13643 0.0174,-0.0418 0.0408,-0.12505 0.0408,-0.12505 a 0.60006,0.60006 0 0 0 -0.28733,-0.64648 c -0.6268,-0.3632 -1.2588,-0.98425 -1.8082,-1.7802 0.49021,0.0273 1.0407,0.009 1.6598,-0.0599 1.7003,-0.19008 3.0427,-0.71681 3.9259,-1.5172 0.8832,-0.80039 1.2649,-1.96 0.89039,-3.0608 -0.39544,-1.1622 -1.5517,-1.7148 -2.7575,-1.8593 -1.2057,-0.14451 -2.5607,0.0564 -3.7657,0.44907 -0.65233,0.21261 -1.2088,0.45884 -1.674796,0.73846 0.0528,-2.2704 0.561456,-3.8009007 1.041796,-4.7558007 0.48432,-0.9628 0.89247,-1.3028 0.89246,-1.3028 a 0.60006,0.60006 0 0 0 0.19947,-0.54312 c 0,0 -0.0274,-0.15635 -0.0935,-0.32039 -0.0661,-0.16404 -0.17573,-0.38062 -0.35553,-0.63872 -0.31679,-0.45479 -0.97979,-1.0754 -1.876896,-1.7379 0.295006,-0.0834 0.676726,-0.18321 1.240196,-0.17415 0.70991,0.0114 1.509,0.13818 2.1404,0.38861 0.63147,0.25042 1.0577,0.60192 1.217,1.0237 a 0.6,0.6 0 0 0 0.77308,0.34933 0.6,0.6 0 0 0 0.37983,-0.66146 c 0.0962,-0.0203 0.1966,-0.0403 0.2992,-0.0594 a 0.6,0.6 0 0 0 0.37362,0.46509 0.6,0.6 0 0 0 0.77773,-0.34365 c 0.53191,-1.3716 1.6642,-2.087 2.5993,-2.3456 0.27811,-0.0769 0.52991,-0.10188 0.72295,-0.10025 z m -4.9899,6.6404 c -0.20552,0.005 -0.351,0.11897 -0.4253,0.21601 -0.0767,0.10017 -0.11014,0.19808 -0.13436,0.29662 -0.0485,0.19708 -0.0516,0.4084807 -0.0207,0.6418207 0.0308,0.23336 0.09,0.4454 0.19069,0.64389 0.0504,0.0993 0.10953,0.19786 0.2129,0.29973 0.10334,0.10188 0.28772,0.2212 0.50385,0.22324 0.21613,0.002 0.36668,-0.11377 0.44338,-0.21394 0.0767,-0.10017 0.11014,-0.19808 0.13436,-0.29663 0.0485,-0.19709 0.0516,-0.40847 0.0207,-0.64182 -0.0308,-0.23334 -0.0895,-0.4454007 -0.19017,-0.6438807 -0.0504,-0.0993 -0.11005,-0.19786 -0.21343,-0.29973 -0.10343,-0.10186 -0.28565,-0.22327 -0.50178,-0.22531 -0.007,-6e-5 -0.0135,-1.6e-4 -0.0202,0 z m -3.7006,0.8206207 c -0.12617,-10e-4 -0.22996,0.045 -0.29714,0.0961 -0.0935,0.0711 -0.14395,0.15242 -0.18552,0.23875 -0.0831,0.17269 -0.12326,0.37185 -0.13281,0.59944 -0.01,0.2276 0.0129,0.44388 0.0796,0.66301 0.0333,0.10956 0.076,0.22234 0.16124,0.34882 0.0852,0.12646 0.24011,0.28565 0.43718,0.34675 0.19705,0.0611 0.3613,2.6e-4 0.45475,-0.0708 0.0935,-0.0711 0.14395,-0.15447 0.18552,-0.24081 0.0831,-0.17269 0.12327,-0.36979 0.13281,-0.59738 0.01,-0.22759 -0.0129,-0.44596 -0.0796,-0.66508 -0.0333,-0.10957 -0.076,-0.21976 -0.16123,-0.34623 -0.0852,-0.12646 -0.24013,-0.28617 -0.43719,-0.34726 -0.0554,-0.0172 -0.10824,-0.0249 -0.15761,-0.0253 z m 3.0913,3.2639 c 0.19614,0.002 0.38562,0.0135 0.56586,0.0351 0.96131,0.11521 1.5576,0.44902 1.7637,1.0547 0.22696,0.66705 0.0607,1.2221 -0.55862,1.7834 -0.61932,0.5613 -1.735,1.0449 -3.2561,1.2149 -1.5348,0.17157 -2.4584,-0.0275 -2.9781,-0.31626 -0.519756,-0.28881 -0.697776,-0.65227 -0.773596,-1.0588 -0.065,-0.34846 0.0184,-0.68308 0.4005,-1.0898 0.382076,-0.40678 1.083696,-0.8408 2.152296,-1.1891 0.86186,-0.28092 1.8342,-0.44444 2.6841,-0.43408 z m -0.17673,0.9586 c -0.0835,0.002 -0.16729,0.0176 -0.24908,0.0481 -0.40266,0.14998 -0.61403,0.61227 -0.46405,1.0149 0.14997,0.40265 0.61226,0.61403 1.0149,0.46405 0.40264,-0.14998 0.61197,-0.61124 0.46199,-1.0139 -0.11952,-0.32087 -0.43633,-0.5211 -0.76378,-0.51314 z m -2.9936,0.51418 c -0.0832,0 -0.16873,0.0148 -0.25374,0.0465 -0.4185,0.15588 -0.57211,0.62969 -0.43305,1.003 0.13907,0.37335 0.56541,0.63183 0.98392,0.47594 0.4185,-0.15588 0.57212,-0.6302 0.43305,-1.0036 -0.11081,-0.29752 -0.4039,-0.52195 -0.73018,-0.52193 z m -9.5296957,3.346 2.4495,5.1687 -3.1647,3.5739 -2.7146,-5.4265 z m 9.3585957,1.9823 c 0.33037,0.35531 0.68206,0.67013 1.0495,0.9431 -0.23895,0.30324 -0.70009,0.82893 -1.619,1.7265 -0.11831,0.11556 -0.22667,0.23239 -0.32608,0.34985 -0.585726,0.22189 -1.002796,0.28416 -1.187496,0.26975 -0.066,-0.005 -0.0607,-0.0102 -0.0703,-0.0139 -0.005,-0.0521 0.0124,-0.29846 0.1912,-0.65991 0.1862,-0.3764 0.50749,-0.8519 0.943606,-1.3653 0.4806,-0.56575 0.7999,-0.96123 1.0186,-1.25 z m 23.04,1.6004 c 0.004,-10e-4 -7.9e-4,0.003 -0.007,0.003 0.003,-0.002 0.005,-0.002 0.007,-0.003 z m -0.009,0.004 c 0.006,0.004 0.0163,0.0146 0.03,0.0367 0.025,0.0398 -0.0528,0.19634 -0.0527,0.29094 -0.009,-0.011 -0.0651,2.6e-4 -0.0724,-0.0104 -0.0727,-0.10645 -0.0935,-0.17334 0.047,-0.28319 0.025,-0.0196 0.0394,-0.0293 0.048,-0.0341 z M 8.2254953,24.0207 h 2.7233997 c 0.0727,0.12742 0.17006,0.2435 0.28835,0.33383 0.21822,0.16666 0.4793,0.24304 0.74208,0.26355 0.17648,0.0138 0.3597,0.006 0.55293,-0.0207 -0.0941,0.56745 0.0583,1.1408 0.421676,1.5462 0.0788,0.0878 0.16491,0.16724 0.25684,0.23926 l -0.483176,1.0185 -7.4620997,-0.0382 z m 12.4689957,1.2588 c 0.30803,0.16306 0.6156,0.29737 0.90021,0.40928 0.0377,0.0148 0.0746,0.0289 0.11162,0.0429 -0.29165,0.234 -0.51773,0.49876 -0.66818,0.79478 -0.21362,0.42031 -0.24959,0.90662 -0.11265,1.3369 -0.56131,-0.0755 -1.0686,-0.30557 -1.3679,-0.57929 -0.21414,-0.19584 -0.31329,-0.39162 -0.33021,-0.54674 -0.0169,-0.15511 0.0133,-0.31192 0.2403,-0.55087 0.3365,-0.35422 0.88561,-0.70516 1.2268,-0.90692 z"
       color="#000000"
       style="stroke-linecap:round;stroke-linejoin:round;-inkscape-stroke:none"
       id="path10" />
  </g>
</svg>
