<?xml version="1.0" encoding="UTF-8" standalone="no"?>
<!-- Created with Inkscape (http://www.inkscape.org/) -->

<svg
   width="26.065037mm"
   height="17.256325mm"
   viewBox="0 0 26.065037 17.256325"
   version="1.1"
   id="svg5"
   sodipodi:docname="pig-plate.svg"
   inkscape:version="1.1.2 (0a00cf5339, 2022-02-04)"
   xmlns:inkscape="http://www.inkscape.org/namespaces/inkscape"
   xmlns:sodipodi="http://sodipodi.sourceforge.net/DTD/sodipodi-0.dtd"
   xmlns="http://www.w3.org/2000/svg"
   xmlns:svg="http://www.w3.org/2000/svg">
  <sodipodi:namedview
     id="namedview43"
     pagecolor="#ffffff"
     bordercolor="#666666"
     borderopacity="1.0"
     inkscape:pageshadow="2"
     inkscape:pageopacity="0.0"
     inkscape:pagecheckerboard="0"
     inkscape:document-units="mm"
     showgrid="false"
     inkscape:zoom="4.2597917"
     inkscape:cx="44.25099"
     inkscape:cy="22.771066"
     inkscape:window-width="2560"
     inkscape:window-height="1379"
     inkscape:window-x="0"
     inkscape:window-y="0"
     inkscape:window-maximized="1"
     inkscape:current-layer="svg5"
     fit-margin-top="0"
     fit-margin-left="0"
     fit-margin-right="0"
     fit-margin-bottom="0" />
  <defs
     id="defs2">
    <mask
       maskUnits="userSpaceOnUse"
       id="mask-powermask-path-effect54468-7">
      <path
         id="mask-powermask-path-effect54468-7_box"
         style="fill:#ffffff;fill-opacity:1"
         d="m 567.47221,99.3803 h 58.41444 v 25.98878 h -58.41444 z" />
      <path
         id="path55561"
         style="fill:#ffffff;fill-opacity:1"
         d="m 567.47221,99.3803 h 58.41444 v 25.98878 h -58.41444 z" />
      <path
         style="fill:#000000;stroke:#000000;stroke-width:0.999998;stroke-linecap:round;stroke-linejoin:round;stroke-miterlimit:4;stroke-dasharray:none;stroke-opacity:1"
         d="m 574.07829,109.99486 c 0,0 -1.82613,-2.03173 -2.46497,-0.61412 -0.63884,1.41763 1.59121,1.97411 1.59121,1.97411 0,0 -0.6598,0.16658 -1.26567,0.87242 -0.60589,0.70581 0.55264,3.44441 1.73213,1.88666 1.17951,-1.55776 1.09611,-1.68279 1.09611,-1.68279 0,0 0.16878,1.52978 1.02299,1.83712 0.8542,0.30735 2.36593,-0.72048 1.50659,-2.03147 -0.31065,-0.47388 -0.59378,-0.87269 -0.59378,-0.87269 0,0 1.8066,-0.0121 2.00207,-0.85604 0.19548,-0.8439 -0.31681,-2.08264 -1.14387,-2.27993 -0.62701,-0.14957 -1.55408,1.15088 -1.55408,1.15088 0,0 0.39216,-1.29876 -0.56367,-1.83784 -0.95591,-0.53909 -1.46452,-0.39259 -1.84169,0.0928 -0.49265,0.63393 0.47663,2.36093 0.47663,2.36093 z"
         id="path55563" />
    </mask>
    <filter
       id="mask-powermask-path-effect54468-7_inverse"
       style="color-interpolation-filters:sRGB"
       height="100"
       width="100"
       x="-50"
       y="-50">
      <feColorMatrix
         id="mask-powermask-path-effect54468-7_primitive1"
         values="1"
         type="saturate"
         result="fbSourceGraphic" />
      <feColorMatrix
         id="mask-powermask-path-effect54468-7_primitive2"
         values="-1 0 0 0 1 0 -1 0 0 1 0 0 -1 0 1 0 0 0 1 0 "
         in="fbSourceGraphic" />
    </filter>
  </defs>
  <path
     sodipodi:nodetypes="zzcsz"
     inkscape:connector-curvature="0"
     id="path4751-7-9-8-2"
     d="m 14.262277,5.3490315 c 1.75714,-0.0427 3.8156,1.486 3.77829,3.46273 -0.0373,1.9767105 -1.33397,3.0526805 -3.85388,3.1861505 -1.96866,0.10427 -3.96329,-1.39324 -3.96329,-3.1301805 0,-2.73845 2.28174,-3.4759 4.03888,-3.5187 z"
     style="fill:none;stroke:#000000;stroke-width:1.2;stroke-linecap:round;stroke-linejoin:round;stroke-miterlimit:4;stroke-dasharray:none;stroke-opacity:1" />
  <path
     sodipodi:nodetypes="zzcsz"
     inkscape:connector-curvature="0"
     id="path4751-7-9-8-7-2"
     d="m 14.222527,0.60221152 c 3.60067,-0.10313 7.81881,3.58516998 7.74235,8.35429998 -0.0765,4.7691005 -2.73353,7.3650205 -7.89726,7.6870505 -4.03412,0.25155 -8.1214598,-3.3614 -8.1214598,-7.5520005 0,-6.60687 4.6756898,-8.38607998 8.2763698,-8.48934998 z"
     style="fill:none;stroke:#000000;stroke-width:1.2;stroke-linecap:round;stroke-linejoin:round;stroke-miterlimit:4;stroke-dasharray:none;stroke-opacity:1" />
  <g
     id="g4614-3-4-2-7-6"
     style="display:inline;stroke-width:0.880961"
     transform="matrix(1.1332343,0,0,1.1370165,-202.79704,-163.63186)">
    <ellipse
       transform="rotate(-20.429176)"
       cy="208.28809"
       cx="125.22931"
       id="path4570-7-7-4-0-1-1"
       style="opacity:1;fill:#000000;fill-opacity:1;fill-rule:evenodd;stroke:#000000;stroke-width:0.880961;stroke-linecap:butt;stroke-linejoin:round;stroke-miterlimit:4;stroke-dasharray:none;stroke-dashoffset:0;stroke-opacity:1"
       rx="0.25531372"
       ry="0.28872243" />
  </g>
  <g
     id="g4614-9-3-6-7-0"
     style="display:inline;stroke-width:0.880961"
     transform="matrix(1.1332343,0,0,1.1370165,-201.25574,-156.22155)">
    <ellipse
       transform="rotate(-20.429176)"
       cy="202.53282"
       cx="128.38039"
       id="path4570-7-0-0-8-2-6"
       style="opacity:1;fill:#000000;fill-opacity:1;fill-rule:evenodd;stroke:#000000;stroke-width:0.880961;stroke-linecap:butt;stroke-linejoin:round;stroke-miterlimit:4;stroke-dasharray:none;stroke-dashoffset:0;stroke-opacity:1"
       rx="0.25531372"
       ry="0.28872243" />
  </g>
  <path
     style="fill:none;stroke:#000000;stroke-width:1.2;stroke-linecap:round;stroke-linejoin:round;stroke-miterlimit:4;stroke-dasharray:none;stroke-opacity:1;paint-order:normal"
     d="m 25.030957,13.293122 c 0.13738,-1.84297 0.5734,-11.4266105 0.38946,-11.2674005 -0.79606,0.68909 -0.73368,0.50909 -0.8741,2.56523 -0.0774,1.13334 -0.16429,1.81501 0.5444,2.60618"
     id="path24932-1"
     sodipodi:nodetypes="cssc" />
  <path
     style="fill:none;stroke:#000000;stroke-width:1.2;stroke-linecap:round;stroke-linejoin:round;stroke-miterlimit:4;stroke-dasharray:none;stroke-opacity:1"
     d="m 2.1692972,14.033732 c -0.0949,-1.16185 0.0382,-7.4712605 0.0921,-7.5934605 0.0539,-0.1222 -0.9409,0.13128 -1.26293002,-0.86951 -0.32203,-1.00081 -0.39848,-3.49729 -0.39848,-3.49729 l 1.29410002,4.03815 0.25549,-4.11455 0.32741,3.86305 1.35214,-3.76918 c 0,0 0.47998,3.20425 -1.56774,4.34933"
     id="path25790-5"
     sodipodi:nodetypes="csscccccc" />
</svg>
