<?xml version="1.0" encoding="UTF-8" standalone="no"?>
<!-- Created with Inkscape (http://www.inkscape.org/) -->

<svg
   version="1.1"
   id="svg3419"
   width="856.98486"
   height="348.45099"
   xmlns:inkscape="http://www.inkscape.org/namespaces/inkscape"
   xmlns:sodipodi="http://sodipodi.sourceforge.net/DTD/sodipodi-0.dtd"
   xmlns="http://www.w3.org/2000/svg"
   xmlns:svg="http://www.w3.org/2000/svg">
  <defs
     id="defs3423" />
  <sodipodi:namedview
     id="namedview3421"
     pagecolor="#ffffff"
     bordercolor="#666666"
     borderopacity="1.0"
     inkscape:pageshadow="2"
     inkscape:pageopacity="0.0"
     inkscape:pagecheckerboard="0" />
  <inkscape:clipboard
     style="font-variation-settings:normal;opacity:1;vector-effect:none;fill:#000000;fill-opacity:1;stroke-width:3.77952995;stroke-linecap:butt;stroke-linejoin:miter;stroke-miterlimit:4;stroke-dasharray:none;stroke-dashoffset:0;stroke-opacity:1;-inkscape-stroke:none;stop-color:#000000;stop-opacity:1"
     min="1276.0603,-353.20174"
     max="2133.0451,-4.7507702"
     geom-min="1276.0603,-353.20174"
     geom-max="2133.0451,-4.7507702" />
  <g
     id="g3425"
     transform="matrix(3.7795276,0,0,3.7795276,-1276.0603,353.20174)">
    <path
       id="path1942-3-6"
       style="fill:#000000;stroke-width:3.77953"
       d="m 1554.0371,-353.20117 c -0.2645,0.004 -0.5296,0.033 -0.791,0.084 -4.1356,1.10249 -4.4197,6.28622 -3.2852,9.67774 2.263,10.67274 0.8018,21.71955 -2.33,32.05664 -1.7241,5.57261 -3.7793,11.16686 -6.6309,16.22851 -3.4656,3.36363 -8.5916,2.20981 -12.9043,2.95899 -4.8686,0.23093 -9.5023,1.89093 -14.1875,2.92187 -10.3683,1.05067 -20.8938,0.0762 -31.168,2.16992 -22.7151,3.62646 -45.3463,8.45627 -67.5586,14.86914 -12.8063,3.65084 -24.5617,9.96216 -36.3086,16.25 -8.4347,4.82835 -17.0654,9.90731 -23.5507,17.27149 -4.881,5.87822 -7.9072,13.4483 -14.1426,18.09961 -3.6696,2.00379 -8.3264,-0.002 -10.1289,-3.60156 5.565,-3.81427 8.4911,-10.62165 7.9258,-17.28125 -0.1399,-4.81781 0.3969,-10.71836 -3.4961,-14.27735 -4.9906,-3.84725 -12.793,-2.63338 -16.4024,2.54102 -3.7264,5.04552 -6.5083,11.27916 -5.791,17.68164 -0.1345,1.98916 1.1764,6.0099 -1.959,3.79101 -10.9921,-3.90221 -20.0871,-11.64289 -29.6523,-17.83984 -2.1285,-1.56378 -5.1834,-0.30277 -5.377,2.38281 -1.2469,4.69557 2.6296,8.35553 6.1836,10.66992 9.4488,6.10859 18.8816,13.78128 30.5059,14.82227 3.3669,-0.008 7.6145,-0.45353 9.6543,2.91992 3.1161,5.72243 9.5972,9.90187 16.2324,9 2.8648,0.22526 2.6366,3.65695 1.3633,5.43946 -2.2426,9.10851 -1.0072,18.60467 -1.2149,27.88867 0.378,13.04632 2.0627,25.99019 3.7559,39.02929 0.6009,4.78674 2.184,9.65377 2.8887,14.62891 0.023,7.05679 -5.2326,12.46953 -8.8008,18.07227 -7.4411,10.188053 -16.9,19.632498 -29.0527,23.853512 -2.9482,1.044246 -6.6854,2.690792 -6.4395,6.441406 0.8097,4.386214 2.5108,8.636424 3.2598,13.078125 1.5389,6.334753 2.5053,12.779328 4.8906,18.876953 3.586,5.009577 10.484,4.804792 16.0039,5.15625 8.3017,0.251339 16.7351,-0.74571 23.8867,-3.916015 11.5606,-4.949859 22.8713,-10.733996 35.1543,-13.728516 2.5358,7.212926 4.2726,14.745118 7.7324,21.589844 2.7888,8.055345 3.3455,16.792496 6.7442,24.6249998 1.471,3.0266834 4.848,4.2506795 8.0371,3.8457031 11.4716,0.3208819 22.6562,0.3503053 33.8203,-1.3007813 3.7981,-0.3711496 8.5924,-1.6963853 9.4062,-6.0390626 1.4761,-5.019855 1.9007,-10.285352 3.3204,-15.324219 1.9891,-10.664732 3.137,-21.462306 4.8379,-32.173828 10.5062,4.003162 21.855,2.512657 32.7167,1.740235 15.326,-1.378696 30.937,-2.732585 45.5801,-7.994141 12.3259,-3.895181 25.3519,-3.901633 38.0508,-5.675781 4.0777,13.785675 6.823,27.920529 10.502,41.808594 0.8288,2.687357 0.178,6.120874 2.2539,8.226562 4.1288,2.344857 9.1888,1.011844 13.6855,0.876953 8.4211,-0.771061 16.805,-1.328554 25.002,-3.867187 2.695,-2.437985 1.8554,-6.602911 2.0175,-9.869141 -0.5447,-7.247246 -2.7305,-14.251128 -2.8886,-21.621094 -0.2468,-3.785045 -1.0299,-7.497205 -1.9199,-11.175781 9.8274,2.149531 19.6504,4.382445 29.5429,6.173828 11.729,3.278476 22.8924,8.375043 34.8399,10.933594 11.2407,2.712983 22.5833,5.138078 33.7382,8.130859 3.4753,-0.04082 6.0694,-3.575603 5.5879,-6.902343 0.8119,-4.563667 4.0042,-8.268761 4.9102,-12.792969 0.8988,-2.159282 4.0161,-1.101649 4.3789,0.976562 1.6751,4.730306 5.7852,8.11033 7.6152,12.695313 0.098,3.908485 3.9303,7.39224 7.875,6.136718 5.5374,-1.028333 10.8707,-3.178134 16.4492,-3.626953 16.444,-2.849915 32.3179,-7.986847 48.1016,-13.601562 7.1335,-2.772964 14.6963,-4.478163 22.3555,-4.613281 2.0292,-0.408454 4.3985,-0.0087 5.3105,2.099609 -4.3064,9.97028 -10.424,19.500341 -11.8633,30.443359 0.68,4.524057 6.1265,5.235552 9.7247,6.259766 6.7566,1.801474 13.7937,1.965924 20.6894,2.746094 4.2603,0.884031 7.748,5.102601 12.3262,4 4.4012,-2.547364 5.361,-8.093361 8.2422,-11.964844 6.8594,-11.348487 12.9167,-23.29883 19.0195,-35.177734 1.1169,-1.257827 1.6044,-4.455248 3.3437,-4.216797 9.5872,2.821833 19.009,6.301673 28.6211,8.953125 19.2522,-0.06047 38.6561,1.560663 57.4903,-2.955078 3.1812,-0.896353 6.1075,-2.441367 9.0566,-3.896485 1.5073,8.240542 0.4621,16.882762 3.5723,24.816407 2.7008,8.570873 5.3945,17.251279 5.8476,26.287109 0.2608,2.756447 1.1,7.2627696 4.8262,6.6230468 10.4489,-0.011339 20.9354,-0.00119 31.3477,-0.8847658 2.9873,-0.324283 5.7311,-1.371982 8.1621,-2.9375 1.7567,-1.13125 4.7113,-1.853863 4.373,-4.490234 0.2533,-5.508057 -0.937,-10.947352 -0.5019,-16.601563 0.038,-8.674584 0.9625,-17.305106 1.9082,-25.917969 6.4316,7.305789 14.7641,13.32689 24.4941,15.125 4.0509,0.825185 8.3833,1.382993 12.4649,1.601563 5.4262,0.205984 10.9724,0.393838 16.3242,-0.539063 3.4159,-1.810129 2.8736,-6.295401 4.7793,-9.230468 3.7735,-7.055811 5.0178,-15.051394 6.5742,-22.806641 0.1436,-3.153751 1.5042,-6.693554 0,-9.65625 -2.8929,-3.765657 -7.8261,-1.570571 -11.6563,-1.070312 -4.8366,0.798463 -8.5369,-3.085969 -12.6679,-4.84961 -6.9426,-3.899074 -13.7459,-8.033851 -20.543,-12.179691 6.469,-13.2449 8.7071,-27.8534 11.7031,-42.21289 1.9658,-14.84995 2.2079,-29.78302 1.8946,-44.8125 -0.6989,-8.21597 -4.4474,-15.74709 -7.0137,-23.44531 -0.4717,-2.77648 2.6989,-3.25984 4.6133,-3.91797 10.8056,-4.89657 17.5426,-15.56171 21.4707,-26.34179 2.0829,-4.6153 7.6198,-6.31724 10.1797,-10.67579 5.6216,-7.44128 10.5603,-16.44388 10.0293,-26.04101 -0.491,-4.46457 -7.1786,-5.13137 -9.3477,-1.53711 -2.1672,4.06583 -2.5943,8.88274 -4.6855,13.0293 -1.4181,2.97853 -3.0957,5.90848 -5.0508,8.53711 -1.7008,1.67036 -3.7206,0.39661 -4.6836,-1.35743 -5.2407,-5.18343 -14.221,-6.27849 -20.5567,-2.56836 -6.8783,5.03248 -5.2082,17.09368 2.6309,20.31055 3.1264,1.67766 6.738,1.58689 10.1777,1.73047 -4.1174,5.47722 -7.6074,12.11224 -13.8398,15.42969 -3.7183,1.46018 -8.1878,0.43347 -10.6211,-2.80078 -7.7768,-7.53805 -16.1868,-14.91518 -25.8008,-19.6504 -16.5305,-9.3685 -33.5658,-19.67772 -52.9687,-21.1875 -8.8453,-0.73954 -17.7226,-1.21923 -26.5274,-2.30078 -9.6941,0.0113 -19.2062,2.81632 -29.0371,1.88282 -5.2626,-0.31786 -10.8005,-0.0858 -15.7891,-1.86133 -3.9824,-2.66343 -4.4687,-7.86533 -6.3671,-11.90039 -3.8661,-10.90723 -7.2137,-22.52779 -5.7813,-34.16016 0.2419,-1.3948 -1.1566,-1.70526 -2.0527,-2.09766 -2.089,-0.91457 -3.9273,-0.1875 -6.8379,-0.19921 -6.8013,0.78633 -12.9166,2.78997 -18.3399,6.95312 -2.9,2.06854 -5.4993,4.51448 -8.1933,6.83594 -5.6402,-7.83946 -14.1478,-12.84213 -22.0508,-18.08789 -4.4908,-2.62987 -9.1424,-5.48074 -14.2402,-6.57813 -3.5577,0.20145 -5.9847,4.18068 -4.3965,7.43164 2.1263,9.4876 1.8841,19.29101 2.0058,28.95703 -0.045,4.53948 -0.4707,9.06804 -1.2187,13.54493 -2.0689,2.03149 -5.2485,1.90851 -7.4883,3.75976 -9.651,5.39498 -17.2129,13.59278 -25.4043,20.8418 -6.7071,5.41096 -15.5172,7.6133 -24,7.73633 -8.7624,-0.23887 -17.1517,-3.61295 -24.7539,-7.76563 -3.5074,-2.45507 -7.3229,-4.88807 -11.8027,-4.71875 -7.519,-0.19124 -14.2916,4.01855 -19.3535,8.98828 -0.9547,2.54865 -2.9562,1.31541 -4.8418,0.48633 -4.1779,-1.88825 -8.7087,-4.82445 -13.4512,-3.01172 -6.9003,1.2183 -13.8326,2.26702 -20.5723,4.2461 -7.6206,1.97249 -15.5186,3.61098 -23.414,2.70703 -4.5907,0.36623 -6.831,-4.55026 -9.92,-7.04297 -6.0865,-6.18758 -12.1682,-12.38001 -18.2578,-18.56445 1.2387,-10.38384 0.3,-21.52138 5.6465,-30.94336 2.6597,-5.797 6.4765,-11.29065 7.6758,-17.61524 -0.8825,-4.23878 -5.4828,-6.90315 -9.5352,-7.42578 -6.9668,-0.26797 -13.6278,2.51894 -20.0722,4.83594 -8.7763,3.41953 -17.5838,8.32756 -25.459,13.92969 -5.7301,-7.93304 -10.0374,-16.77677 -15.4004,-24.92774 -5.9712,-7.50584 -14.9228,-11.87084 -23.6855,-15.22461 -0.4263,-0.12567 -0.8658,-0.18486 -1.3067,-0.17773 z m 9.3399,15.86133 c 0.3413,-0.008 0.6696,0.0664 0.9335,0.24023 7.0455,3.84601 9.3223,12.15825 14.4961,17.79492 5.6007,7.66738 9.5428,16.38605 13.9668,24.7461 2.9461,5.66668 5.363,11.83744 9.5957,16.67187 3.0301,1.94835 6.4655,3.2172 9.2715,5.54883 3.9246,2.77757 8.595,4.08584 13.1289,5.35156 1.454,0.69842 3.202,0.18293 4.6367,0.82031 2.6441,1.17423 4.6192,3.48807 6.8516,5.32813 7.6305,6.2891 13.5976,14.69043 22.3457,19.50781 6.7896,2.77259 14.424,1.16297 21.2324,0.86133 6.4993,-1.05388 12.248,-4.4962 18.2579,-6.98437 -2.2005,8.094 -4.8582,17.45762 -0.125,25.19726 3.9877,7.16039 10.6604,12.23442 15.7597,18.54102 -7.3266,3.6678 -15.5097,5.65879 -22.2187,10.49609 -1.728,3.4275 -5.1473,5.96734 -5.625,9.9668 -1.7481,3.9496 -4.3157,7.4861 -5.9375,11.51757 -3.4107,7.37054 -7.6157,14.47829 -13.5938,20.07422 -6.0487,6.48632 -13.0227,12.38814 -21.414,15.53516 -3.8824,2.30906 -8.2124,5.07825 -9.7325,9.54297 0.5293,4.7043 3.3217,8.77689 5.168,13.05078 1.8833,3.96215 5.3221,6.84927 9.373,8.41211 11.562,5.728629 23.7317,10.126719 35.4278,15.560546 9.685,3.768681 28.2753,8.821149 38.0137,12.447266 -2.1695,1.708686 -14.078,1.883115 -12.8497,5.148437 1.4627,4.34309 6.8081,4.498929 10.5782,5.298829 -0.934,3.587149 -1.9261,7.157879 -2.9825,10.710937 -15.7579,-2.768428 -31.4832,-6.005391 -46.5605,-11.458984 -8.2677,-2.837783 -16.6754,-5.429706 -25.4023,-6.326172 -8.8401,-1.565783 -17.6944,-3.123169 -26.5899,-4.298828 -5.3245,-1.295963 -10.7301,-2.157766 -16.2246,-2.107422 -10.1291,-1.840366 -24.2361,-1.581381 -36.373,-1.873047 -3.9544,-0.09487 -7.9313,0.173992 -11.8672,0.03906 -10.3962,0.643881 -20.4898,3.411418 -30.2578,6.884766 -11.8194,3.697281 -24.3966,3.455108 -36.3907,6.148438 -10.8565,2.362015 -22.3367,2.593722 -33.0703,-0.486329 -4.3225,-0.22148 -6.3275,4.523485 -6.5195,8.173829 -2.0539,12.192982 -2.8778,24.595312 -6.0098,36.597656 -0.6504,2.777045 -1.1005,5.59102 -1.4961,8.414062 -2.283,0.978255 -6.1546,1.053016 -6.4883,-2.125 0.034,-2.701001 1.9668,-5.395073 0.5899,-8.126953 -1.1064,-3.202356 -5.5494,-4.296441 -7.8477,-1.667969 -3.8145,3.406942 -5.9585,8.373865 -6.3535,13.433594 h -13.5762 c -1.9576,-5.257172 -2.0438,-10.915896 -3.0488,-16.349609 -1.8976,-5.286841 -4.3115,-10.38617 -5.5996,-15.882813 -4.1552,-12.768151 -10.3098,-24.798185 -16.918,-36.443359 -4.1704,-5.945197 -8.9939,-11.416936 -12.7089,-17.685545 -3.6228,-5.72636 -7.8422,-11.30614 -10.0098,-17.76758 -0.8742,-5.22656 0.2471,-10.77123 -2.1367,-15.71289 -2.1195,-5.37041 -5.0802,-10.81892 -4.4024,-16.77734 -0.7188,-4.3688 -1.9992,-8.64658 -1.9785,-13.12305 -1.1153,-12.64996 -1.8527,-25.60017 1.4297,-38.01172 2.1101,-9.04467 4.872,-18.10397 9.5312,-26.17969 2.8948,-3.49224 7.1364,-5.46242 10.5215,-8.42187 11.2275,-8.10686 23.6438,-14.49049 36.3711,-19.88281 17.8048,-6.90656 36.7223,-10.15035 55.1328,-14.98047 17.2935,-4.16791 34.9228,-7.29529 52.7579,-7.45899 7.3913,-0.44534 14.2661,-2.59327 21.3125,-4.38476 2.6274,-0.66161 5.5738,1.8366 7.7363,-0.50977 4.3242,-5.20524 6.8003,-11.69035 9.5312,-17.82422 4.3816,-10.5253 6.8226,-21.95157 6.3243,-33.36132 -0.131,-1.05719 1.0092,-1.82516 2.0332,-1.84961 z m 69.2636,16.8789 c 0.1613,6.3e-4 0.3233,0.0119 0.4844,0.0371 2.5121,0.28762 2.3407,3.37701 0.9395,4.85938 -3.2063,5.6194 -4.9224,12.01685 -4.6622,18.50195 -0.1564,6.07824 -0.3648,12.15596 -0.8906,18.21484 -3.8116,-2.08244 -8.141,-1.68583 -12.2988,-2.06836 -4.8564,-0.34053 -7.6727,-4.67337 -9.7539,-8.55468 -2.8037,-5.08831 -5.0862,-10.50481 -7.1953,-15.8711 -0.2646,-3.45721 3.929,-3.87751 6.1328,-5.375 8.0337,-3.99341 16.3454,-7.58997 25.1855,-9.33789 0.6638,-0.20513 1.3598,-0.40896 2.0586,-0.40625 z m 219.2403,0.83008 c 0.1494,-0.0125 0.3441,0.0788 0.5976,0.30274 0.7378,0.61447 1.4767,1.22927 2.2149,1.84374 6.2883,5.13876 12.0722,10.42854 19.0156,14.51954 -4.2966,4.69398 -6.9407,10.68171 -11.2285,15.32422 -4.7199,2.96503 -10.4995,3.17405 -15.5977,5.22656 3.5709,-10.34812 4.0257,-21.22793 4.4531,-31.99414 0.4207,-1.19758 -0.3685,-5.14648 0.545,-5.22266 z m 51.4218,7.56055 c 0.2291,0.002 0.4476,0.0536 0.6426,0.17773 2.2254,1.41695 1.2814,4.4882 1.7051,7.73047 h -0.01 c -0.1134,7.56918 0.1967,15.32276 3.209,22.38477 2.2665,6.13844 3.7692,13.04038 8.373,17.92187 3.3441,2.15902 6.5542,-1.32242 10.0098,-1.12305 6.0245,-0.11603 11.9713,1.27408 18.0117,1.13477 7.1486,0.30387 14.2553,-0.69631 21.3223,-1.51367 9.2511,-0.13342 18.3387,2.03994 27.5566,2.54492 12.5344,1.16447 24.5507,5.4649 35.5449,11.48633 8.4949,4.57436 16.9171,9.34247 25.1055,14.42578 9.597,7.20412 18.2882,16.03471 24.041,26.63867 4.3718,8.27354 5.4095,17.77144 5.0879,26.9961 -0.038,12.27658 0,24.65044 -1.9492,36.79882 -1.962,10.2827 -4.5155,20.4996 -8.0879,30.34375 -4.235,9.40623 -10.9464,17.537051 -15.4277,26.746097 -2.5943,4.431723 -4.4165,9.308125 -4.918,14.429687 -3.3302,14.581981 -7.2759,29.19957 -7.3848,44.263672 -0.061,1.998728 0.3666,4.227331 -0.6289,5.957032 -1.0904,1.892371 -2.4137,4.665573 -5.293,3.861328 -2.9544,-0.196914 -5.8884,-0.588077 -8.748,-1.373047 0.2343,-5.41595 3.0353,-11.382255 0,-16.439453 -2.7515,-2.402041 -7.5745,-0.531038 -7.9668,3.134765 -0.8867,3.66875 -1.5611,7.390055 -2.5664,11.03711 -2.7326,-7.546772 -4.8149,-15.306731 -7.1465,-22.982422 -1.8312,-5.689852 -1.8128,-11.6792 -2.2539,-17.564453 -0.1361,-3.413178 -1.6041,-6.920524 -4.9316,-8.302735 -2.3951,-2.290091 -5.7095,-2.682792 -8.8457,-2.111328 -5.83,1.043414 -11.4142,3.199873 -17.4629,3.396485 -14.8063,1.58169 -29.8107,1.606611 -44.6211,0.136718 -7.2673,-1.469215 -13.8872,-5.072127 -21.1231,-6.675781 -8.2186,-2.571666 -15.8598,-6.967222 -24.4238,-8.414063 -5.2634,-1.693946 -10.0067,-1.31932 -16.7422,0.19336 -5.1447,1.57954 -10.0759,3.771577 -14.9726,5.929687 -6.2552,1.513096 -11.9269,4.832097 -18.3653,5.642579 -9.3158,1.662009 -18.8441,2.758015 -27.5918,6.613281 -17.5253,6.50177 -35.6021,11.677805 -54.0722,14.58789 -1.9714,1.030715 -5.4424,0.647263 -5.295,-2.169921 -0.064,-3.463068 -0.6729,-6.878358 -1.0761,-10.310547 4.2538,-0.09298 9.8169,-2.31088 9.7754,-7.316407 -0.4128,-3.12 -10.4896,0.751095 -11.7872,-3.589843 15.9882,-4.59893 38.347,-8.410824 53.9727,-14.273438 9.8109,-4.055131 19.2718,-9.232173 27.6914,-15.701173 2.2583,-2.67137 1.2827,-6.87636 -1.4473,-8.80078 -1.2117,-2.18525 -2.0474,-4.61802 -4.2656,-6.04102 -8.4537,-7.30662 -20.0993,-9.01124 -28.4453,-16.54296 -5.9822,-4.95013 -9.9754,-11.77714 -14.1934,-18.18555 -3.2137,-6.12518 -8.2797,-10.80938 -12.5117,-16.21875 -7.4286,-9.05507 -14.9496,-18.30627 -24.8066,-24.86133 -2.1853,-1.55214 -4.514,-2.88709 -6.7598,-4.34766 8.8864,-7.08895 20.1296,-12.45134 25.1582,-23.24609 2.1869,-5.98038 0.7556,-12.46972 1.2832,-18.67578 9.4609,4.42862 20.568,4.61645 30.3907,1.31836 13.2166,-5.1716 23.0361,-15.82143 33.9355,-24.46094 4.2954,-3.25701 9.6069,-4.91555 14.9609,-4.97265 8.4541,-1.36574 16.9808,-3.12745 24.8418,-6.58008 2.1169,-2.49487 2.2704,-6.20107 4.7774,-8.51172 7.1463,-9.5345 15.2511,-18.66561 26.2695,-23.65625 0.6647,-0.24419 1.6352,-0.87539 2.4531,-0.86914 z m -327.2519,1.46093 c -0.1077,10e-4 -0.2182,0.008 -0.3281,0.0195 -2.9916,0.70567 -1.6686,4.4996 -1.9219,6.66406 0.1701,4.2926 0.075,9.32338 2.9277,12.77148 2.4677,1.01435 2.6328,-2.7207 3.041,-4.29687 0.5026,-4.56098 -0.2021,-9.24428 -1.3593,-13.64063 -0.4046,-1.04174 -1.3183,-1.52915 -2.3594,-1.51758 z m 316.4258,21.91407 c -0.1507,0.002 -0.3095,0.0146 -0.4766,0.0371 -3.3744,0.47025 -2.8701,4.92448 -2.8047,7.46289 0.2154,2.67299 0.475,6.937 3.7949,7.39648 2.7814,-1.77486 1.7962,-5.77997 2.252,-8.6289 0.04,-2.23815 0.2975,-6.30692 -2.7656,-6.26758 z m 204.7793,29.82422 c 1.3808,0.047 3.1659,0.52368 5.3398,1.93164 l 4.4961,2.77148 c 0,0 -4.6088,2.59027 -10.2344,2.38867 -5.6255,-0.20161 -3.084,-6.05273 -3.084,-6.05273 0,0 1.181,-1.11734 3.4825,-1.03906 z m -352.1621,5.76367 c 4.8997,0.0922 7.1477,5.37159 7.9902,9.49804 2.3289,6.92572 1.5226,15.9557 -4.9434,20.39649 -3.0172,1.91626 -6.0123,3.88488 -8.791,6.14258 -1.5254,1.17641 -1.4349,1.27003 -3.5,2.83789 -2.6952,1.78397 -4.6277,4.77332 -7.7715,5.83008 -0.3806,0.161 -0.4618,0.38336 -4.6133,-2.45118 -6.7899,-5.24236 -15.2987,-10.06905 -17.7675,-18.89062 -1.2344,-5.94478 0.5337,-12.438 4.2441,-17.15625 2.3811,-2.10781 7.9761,-1.5157 9.627,0.69922 0.571,1.33757 4.3449,4.35001 3.5664,5.27539 -1.0398,1.23556 -8.5749,1.36841 -8.7578,3.02539 -0.3856,3.47373 0.3097,7.93889 3.5136,9.94336 3.5501,1.31822 5.6688,-2.84751 8.0918,-4.61524 0.6112,5.62644 -0.6775,11.67158 1.6953,16.97657 1.8271,2.27214 4.5198,-0.46989 5.0743,-2.48438 2.1108,-5.05073 0.557,-10.70377 1.7226,-15.86914 1.4449,-1.57689 3.7123,-0.42432 4.3008,1.42969 1.3183,2.09956 4.3301,2.04772 5.5898,-0.0508 2.1997,-2.06933 4.0242,-6.30644 0.8301,-8.38477 -1.5832,-1.60985 -4.1435,-1.40259 -5.4531,0.41797 -1.7541,1.93807 -4.4873,-0.0568 -4.002,-2.38672 -0.076,-1.80767 -2.5489,-3.53476 -2.2129,-4.96289 3.5736,-2.23226 7.1576,-5.10588 11.5665,-5.2207 z m -137.8985,1.39062 c -0.1732,6.8e-4 -0.346,0.008 -0.5195,0.0195 -5.6159,0.45551 -7.5828,6.64144 -9.332,11.08594 -2.0024,5.49237 -4.4426,11.06023 -4.8985,16.91797 0.2789,3.26101 4.7791,6.63411 7.2949,3.38281 2.6671,-3.66909 3.5217,-8.30117 5.4805,-12.35547 1.0431,-2.64071 2.0435,-5.29693 3.0723,-7.94336 5.0847,2.79901 9.2167,6.91425 12.873,11.34571 1.6757,1.71949 4.3864,3.14369 6.4453,1.19531 3.5167,-2.16397 3.0563,-7.17021 0.5391,-9.94336 -4.2566,-6.0096 -10.674,-10.28385 -17.3848,-13.0957 -1.1548,-0.36067 -2.3577,-0.61415 -3.5703,-0.60938 z m -279.0898,0.85352 c 0.3174,2.1555 0.6357,4.31126 0.9531,6.4668 0.01,3.68356 0.046,8.40929 -3.2363,11.11328 -2.0507,3.22053 -2.6184,2.09059 -2.4414,-1.22266 -0.8728,-5.89304 2.1196,-11.31682 4.7246,-16.35742 z m 498.584,9.28906 c -0.1787,0.003 -0.3576,0.0199 -0.5352,0.0488 -3.298,1.14629 -2.6605,5.56139 -2.0293,8.27539 1.3852,6.86835 5.3101,15.59412 13.2422,16.95898 4.6821,0.5088 10.388,0.31496 13.8066,-3.33984 1.7602,-2.31579 0.9036,-6.62206 -2.498,-6.62891 -4.0279,-0.68768 -8.4405,0.57388 -12.2344,-0.88671 -3.7073,-3.37425 -4.5828,-8.50269 -6.5176,-12.84571 -0.7447,-1.01722 -1.9839,-1.60591 -3.2343,-1.58203 z m -99.2579,44.71484 c 0.3463,-0.003 0.6866,0.0194 1.0176,0.0684 l 0.3086,0.21485 0.021,0.0137 c 5.619,3.87885 10.5002,8.75582 16.4609,12.16016 5.1693,3.23051 9.0658,7.96225 12.3555,13.01367 6.7434,9.36 15.1241,17.43368 21.0039,27.41601 4.9606,7.8539 10.953,15.41066 19.5352,19.48243 6.898,3.88452 14.5332,6.59541 20.6972,11.67578 -12.4123,10.18446 -28.2582,14.674209 -43.6015,18.306638 -9.134,2.026582 -18.1987,4.353801 -27.1289,7.132812 -4.294,1.060384 -9.1358,1.144621 -12.7305,3.955078 -2.7413,0.633033 -3.5219,-2.952801 -6.1191,-3.107422 -4.5052,-1.036044 -9.076,-1.767132 -13.4043,-3.474609 -17.3008,-5.444485 -33.8746,-12.864277 -50.336,-20.406247 -6.4089,-2.7594 -14.1598,-5.16413 -17.4687,-11.87891 -0.8708,-1.77033 10e-5,-4.0237 2.123,-4.14453 9.2814,-3.23637 17.5032,-9.02394 23.9942,-16.36719 6.9709,-7.14633 12.7266,-15.38344 17.3769,-24.19726 3.8823,-6.12235 7.3595,-12.88931 13.0957,-17.4961 5.6319,-3.76547 12.8008,-5.29921 17.334,-10.58008 1.5626,-1.0396 3.5951,-1.77183 5.4648,-1.78711 z m -375.8906,85.7793 c 0.596,-0.0196 1.166,2.45874 1.7949,3.01172 5.0916,9.848542 11.9481,18.666899 18.7579,27.205079 3.5525,5.003716 6.226,10.552344 8.9687,16.023437 -12.9944,3.608277 -24.861,9.763479 -37.0918,15.208985 -7.0626,2.500611 -14.7481,2.443069 -22.1387,2.175781 -2.8762,-0.38589 -5.4993,-1.847646 -8.2754,-2.658203 3.7274,-0.865096 7.4407,-1.776478 11.2735,-1.794922 2.9768,-0.03402 5.249,-3.055197 4.0429,-5.882813 -1.2835,-3.6401 -5.5284,-2.852579 -8.5488,-3.099609 -3.3274,0.0771 -6.1012,-2.658001 -6.125,-5.986328 0.015,-1.694438 -2.1972,-4.50074 0.25,-5.197266 5.3135,-2.80543 10.7515,-5.498725 15.1563,-9.6875 9.1845,-7.947175 15.6915,-17.61937 21.3281,-28.302731 0.2076,-0.72555 0.4087,-1.00909 0.6074,-1.01563 z m 723.8047,13.406252 c 0.5734,0.465071 1.1458,0.92946 1.7188,1.394531 8.8063,6.877228 17.9272,13.486839 27.7343,18.855469 2.2008,0.701669 4.5428,0.818198 6.7383,1.5625 0.257,2.427742 1.0774,6.308007 -1.9844,7.271484 -2.3493,-0.0038 -3.8649,-2.778437 -6.4531,-1.96289 -3.0724,0.222236 -6.4456,3.950152 -3.8672,6.757812 3.1858,4.343736 8.6093,5.980934 13,8.773438 -11.1851,-0.221859 -23.0465,1.781189 -33.6035,-2.941407 -5.6988,-2.909291 -10.8435,-6.772521 -16.1953,-10.257812 1.8051,-8.229351 3.6856,-16.80187 9.0352,-23.5625 1.2925,-1.963691 2.5888,-3.923646 3.8769,-5.890625 z m -193.2519,20.152344 c 4.5229,0.05858 8.747,1.857165 12.9335,3.365234 -7.1905,15.273861 -14.3857,30.556009 -22.3964,45.421875 -3.2735,-3.202205 -7.9826,-3.052294 -12.1797,-3.853516 1.7329,-2.266204 3.83,-5.351779 1.709,-8.099609 -1.2862,-2.502047 -4.9166,-3.699093 -6.9024,-1.298828 -2.6268,2.154973 -3.9273,5.430238 -6.2344,7.810547 -2.0488,1.83942 -5.8967,0.166922 -5.0195,-2.767578 2.7825,-7.252575 6.258,-13.948801 8.6055,-21.404297 1.3179,-2.988548 1.4363,-6.537598 3.2422,-9.253906 3.2538,-2.938583 7.1811,-4.231969 11.0449,-5.748047 4.8903,-1.918942 10.1304,-3.714288 15.1973,-4.171875 z m -297.9336,5.861328 c 0.9227,0.0189 1.8468,0.03302 2.7695,0.05078 10.6159,0.315591 21.2154,1.47878 31.5723,3.875 -2.1575,2.378381 -3.9516,5.304075 -3.2735,8.662109 0.5591,8.731276 1.6191,17.345483 3.5176,25.722657 -2.1946,1.105927 -5.9293,2.050313 -6.8887,-1.091797 -0.3239,-3.480758 1.3158,-7.952121 -1.748,-10.636719 -3.4622,-2.211628 -7.654,1.230653 -7.6641,4.9375 -0.4514,3.178584 0.2779,6.359946 0.5918,9.515625 -2.5611,-0.406488 -6.7866,0.917494 -7.5586,-2.591797 -3.3778,-12.916045 -7.3645,-25.685564 -11.3183,-38.443358 z"
       transform="scale(0.26458333)" />
  </g>
</svg>
