<?xml version="1.0" encoding="UTF-8" standalone="no"?>
<!-- Created with Inkscape (http://www.inkscape.org/) -->

<svg
   width="27.708334mm"
   height="19.193426mm"
   viewBox="0 0 27.708334 19.193426"
   version="1.1"
   id="svg5"
   sodipodi:docname="pig-rings.svg"
   inkscape:version="1.1.2 (0a00cf5339, 2022-02-04)"
   xmlns:inkscape="http://www.inkscape.org/namespaces/inkscape"
   xmlns:sodipodi="http://sodipodi.sourceforge.net/DTD/sodipodi-0.dtd"
   xmlns="http://www.w3.org/2000/svg"
   xmlns:svg="http://www.w3.org/2000/svg">
  <sodipodi:namedview
     id="namedview43"
     pagecolor="#ffffff"
     bordercolor="#666666"
     borderopacity="1.0"
     inkscape:pageshadow="2"
     inkscape:pageopacity="0.0"
     inkscape:pagecheckerboard="0"
     inkscape:document-units="mm"
     showgrid="false"
     inkscape:zoom="4.2597917"
     inkscape:cx="-0.35212989"
     inkscape:cy="56.340783"
     inkscape:window-width="2560"
     inkscape:window-height="1379"
     inkscape:window-x="0"
     inkscape:window-y="0"
     inkscape:window-maximized="1"
     inkscape:current-layer="svg5"
     fit-margin-top="0"
     fit-margin-left="0"
     fit-margin-right="0"
     fit-margin-bottom="0" />
  <defs
     id="defs2">
    <mask
       maskUnits="userSpaceOnUse"
       id="mask-powermask-path-effect54468-7">
      <path
         id="mask-powermask-path-effect54468-7_box"
         style="fill:#ffffff;fill-opacity:1"
         d="m 567.47221,99.3803 h 58.41444 v 25.98878 h -58.41444 z" />
      <path
         id="path55561"
         style="fill:#ffffff;fill-opacity:1"
         d="m 567.47221,99.3803 h 58.41444 v 25.98878 h -58.41444 z" />
      <path
         style="fill:#000000;stroke:#000000;stroke-width:0.999998;stroke-linecap:round;stroke-linejoin:round;stroke-miterlimit:4;stroke-dasharray:none;stroke-opacity:1"
         d="m 574.07829,109.99486 c 0,0 -1.82613,-2.03173 -2.46497,-0.61412 -0.63884,1.41763 1.59121,1.97411 1.59121,1.97411 0,0 -0.6598,0.16658 -1.26567,0.87242 -0.60589,0.70581 0.55264,3.44441 1.73213,1.88666 1.17951,-1.55776 1.09611,-1.68279 1.09611,-1.68279 0,0 0.16878,1.52978 1.02299,1.83712 0.8542,0.30735 2.36593,-0.72048 1.50659,-2.03147 -0.31065,-0.47388 -0.59378,-0.87269 -0.59378,-0.87269 0,0 1.8066,-0.0121 2.00207,-0.85604 0.19548,-0.8439 -0.31681,-2.08264 -1.14387,-2.27993 -0.62701,-0.14957 -1.55408,1.15088 -1.55408,1.15088 0,0 0.39216,-1.29876 -0.56367,-1.83784 -0.95591,-0.53909 -1.46452,-0.39259 -1.84169,0.0928 -0.49265,0.63393 0.47663,2.36093 0.47663,2.36093 z"
         id="path55563" />
    </mask>
    <filter
       id="mask-powermask-path-effect54468-7_inverse"
       style="color-interpolation-filters:sRGB"
       height="100"
       width="100"
       x="-50"
       y="-50">
      <feColorMatrix
         id="mask-powermask-path-effect54468-7_primitive1"
         values="1"
         type="saturate"
         result="fbSourceGraphic" />
      <feColorMatrix
         id="mask-powermask-path-effect54468-7_primitive2"
         values="-1 0 0 0 1 0 -1 0 0 1 0 0 -1 0 1 0 0 0 1 0 "
         in="fbSourceGraphic" />
    </filter>
  </defs>
  <path
     style="fill:none;stroke:#000000;stroke-width:1.2;stroke-linecap:round;stroke-linejoin:round;stroke-miterlimit:4;stroke-dasharray:none;stroke-opacity:1"
     d="m 5.5404697,3.2143473 c -3.22741,0.52057 -5.53340998,3.33023 -4.81292998,7.3571397 0.72048998,4.0269 3.67894998,6.69046 8.25296998,6.64927 4.5740303,-0.0412 8.3957003,-3.09816 8.3957003,-7.8467897 0,-2.96557 -1.34941,-5.67896 -4.46008,-6.51246"
     id="path18288-4"
     sodipodi:nodetypes="csssc"
     mask="none" />
  <path
     sodipodi:nodetypes="zzcsz"
     inkscape:connector-curvature="0"
     id="path4751-7-9"
     d="m 8.6697097,0.61785726 c 1.3442503,-0.11155 3.8999203,0.31973 3.8670003,2.05825004 -0.0329,1.73851 -1.25277,2.51609 -3.4764103,2.63348 -1.73721,0.0917 -3.31873,-0.59024 -3.49733,-2.10739 -0.21926,-1.86255 1.76248,-2.47280004 3.10674,-2.58434004 z"
     style="fill:none;stroke:#000000;stroke-width:1.2;stroke-linecap:round;stroke-linejoin:round;stroke-miterlimit:4;stroke-dasharray:none;stroke-opacity:1" />
  <g
     id="g4614-3-4-2"
     style="display:inline"
     transform="translate(-182.18787,-148.51493)">
    <ellipse
       transform="rotate(-20.429176)"
       cy="208.28809"
       cx="125.22931"
       id="path4570-7-7-4-0"
       style="opacity:1;fill:#000000;fill-opacity:1;fill-rule:evenodd;stroke:#000000;stroke-width:1;stroke-linecap:butt;stroke-linejoin:round;stroke-miterlimit:4;stroke-dasharray:none;stroke-dashoffset:0;stroke-opacity:1"
       rx="0.25531372"
       ry="0.28872243" />
  </g>
  <g
     id="g4614-9-3-6"
     style="display:inline"
     transform="translate(-180.94189,-142.06484)">
    <ellipse
       transform="rotate(-20.429176)"
       cy="202.53282"
       cx="128.38039"
       id="path4570-7-0-0-8"
       style="opacity:1;fill:#000000;fill-opacity:1;fill-rule:evenodd;stroke:#000000;stroke-width:1;stroke-linecap:butt;stroke-linejoin:round;stroke-miterlimit:4;stroke-dasharray:none;stroke-dashoffset:0;stroke-opacity:1"
       rx="0.25531372"
       ry="0.28872243" />
  </g>
  <g
     id="g23582-9"
     transform="translate(-333.45226,-293.82181)">
    <path
       style="fill:none;stroke:#000000;stroke-width:1.2;stroke-linecap:round;stroke-linejoin:round;stroke-miterlimit:4;stroke-dasharray:none;stroke-opacity:1"
       d="m 350.52084,300.8771 c -1.9513,0.22154 -4.15312,2.54231 -3.74306,5.81839 0.41007,3.27607 2.68681,5.54937 6.38463,5.71222 3.69783,0.16279 7.18508,-2.28174 7.38806,-6.10855 0.12676,-2.38989 -0.84766,-4.63438 -3.32562,-5.43941"
       id="path18288-7-2"
       sodipodi:nodetypes="csssc" />
    <g
       id="g4614-3-4-6-6"
       style="display:inline"
       transform="rotate(3.0361707,-2541.9723,3295.8859)">
      <ellipse
         transform="rotate(-20.429176)"
         cy="208.28809"
         cx="125.22931"
         id="path4570-7-7-4-8-6"
         style="opacity:1;fill:#000000;fill-opacity:1;fill-rule:evenodd;stroke:#000000;stroke-width:1;stroke-linecap:butt;stroke-linejoin:round;stroke-miterlimit:4;stroke-dasharray:none;stroke-dashoffset:0;stroke-opacity:1"
         rx="0.25531372"
         ry="0.28872243" />
    </g>
    <g
       id="g4614-9-3-8-4"
       style="display:inline"
       transform="rotate(3.0361707,-2664.2869,3316.1683)">
      <ellipse
         transform="rotate(-20.429176)"
         cy="202.53282"
         cx="128.38039"
         id="path4570-7-0-0-4-9"
         style="opacity:1;fill:#000000;fill-opacity:1;fill-rule:evenodd;stroke:#000000;stroke-width:1;stroke-linecap:butt;stroke-linejoin:round;stroke-miterlimit:4;stroke-dasharray:none;stroke-dashoffset:0;stroke-opacity:1"
         rx="0.25531372"
         ry="0.28872243" />
    </g>
    <g
       id="g20609-5"
       transform="translate(-1.294256,6.0794066)">
      <path
         sodipodi:nodetypes="zzcsz"
         inkscape:connector-curvature="0"
         id="path4751-7-8-0"
         d="m 354.80119,292.45257 c 1.21817,-0.0356 3.50358,0.47296 3.39131,2.02819 -0.11223,1.55521 -1.24985,2.19313 -3.26173,2.19183 -1.57178,-0.001 -2.96635,-0.68736 -3.05543,-2.05448 -0.10937,-1.67836 1.70767,-2.12998 2.92585,-2.16554 z"
         style="fill:none;stroke:#000000;stroke-width:1.2;stroke-linecap:round;stroke-linejoin:round;stroke-miterlimit:4;stroke-dasharray:none;stroke-opacity:1" />
    </g>
  </g>
</svg>
