<?xml version="1.0" encoding="UTF-8" standalone="no"?>
<!-- Created with Inkscape (http://www.inkscape.org/) -->

<svg
   width="60.848782mm"
   height="35.15097mm"
   viewBox="0 0 60.848782 35.150971"
   version="1.1"
   id="svg5"
   sodipodi:docname="pig-dance.svg"
   inkscape:version="1.1.2 (0a00cf5339, 2022-02-04)"
   xmlns:inkscape="http://www.inkscape.org/namespaces/inkscape"
   xmlns:sodipodi="http://sodipodi.sourceforge.net/DTD/sodipodi-0.dtd"
   xmlns="http://www.w3.org/2000/svg"
   xmlns:svg="http://www.w3.org/2000/svg">
  <sodipodi:namedview
     id="namedview43"
     pagecolor="#ffffff"
     bordercolor="#666666"
     borderopacity="1.0"
     inkscape:pageshadow="2"
     inkscape:pageopacity="0.0"
     inkscape:pagecheckerboard="0"
     inkscape:document-units="mm"
     showgrid="false"
     inkscape:zoom="4.2597917"
     inkscape:cx="93.549175"
     inkscape:cy="24.179586"
     inkscape:window-width="2560"
     inkscape:window-height="1379"
     inkscape:window-x="0"
     inkscape:window-y="0"
     inkscape:window-maximized="1"
     inkscape:current-layer="svg5"
     fit-margin-top="0"
     fit-margin-left="0"
     fit-margin-right="0"
     fit-margin-bottom="0" />
  <defs
     id="defs2">
    <mask
       maskUnits="userSpaceOnUse"
       id="mask-powermask-path-effect54468-7">
      <path
         id="mask-powermask-path-effect54468-7_box"
         style="fill:#ffffff;fill-opacity:1"
         d="m 567.47221,99.3803 h 58.41444 v 25.98878 h -58.41444 z" />
      <path
         id="path55561"
         style="fill:#ffffff;fill-opacity:1"
         d="m 567.47221,99.3803 h 58.41444 v 25.98878 h -58.41444 z" />
      <path
         style="fill:#000000;stroke:#000000;stroke-width:0.999998;stroke-linecap:round;stroke-linejoin:round;stroke-miterlimit:4;stroke-dasharray:none;stroke-opacity:1"
         d="m 574.07829,109.99486 c 0,0 -1.82613,-2.03173 -2.46497,-0.61412 -0.63884,1.41763 1.59121,1.97411 1.59121,1.97411 0,0 -0.6598,0.16658 -1.26567,0.87242 -0.60589,0.70581 0.55264,3.44441 1.73213,1.88666 1.17951,-1.55776 1.09611,-1.68279 1.09611,-1.68279 0,0 0.16878,1.52978 1.02299,1.83712 0.8542,0.30735 2.36593,-0.72048 1.50659,-2.03147 -0.31065,-0.47388 -0.59378,-0.87269 -0.59378,-0.87269 0,0 1.8066,-0.0121 2.00207,-0.85604 0.19548,-0.8439 -0.31681,-2.08264 -1.14387,-2.27993 -0.62701,-0.14957 -1.55408,1.15088 -1.55408,1.15088 0,0 0.39216,-1.29876 -0.56367,-1.83784 -0.95591,-0.53909 -1.46452,-0.39259 -1.84169,0.0928 -0.49265,0.63393 0.47663,2.36093 0.47663,2.36093 z"
         id="path55563" />
    </mask>
    <filter
       id="mask-powermask-path-effect54468-7_inverse"
       style="color-interpolation-filters:sRGB"
       height="100"
       width="100"
       x="-50"
       y="-50">
      <feColorMatrix
         id="mask-powermask-path-effect54468-7_primitive1"
         values="1"
         type="saturate"
         result="fbSourceGraphic" />
      <feColorMatrix
         id="mask-powermask-path-effect54468-7_primitive2"
         values="-1 0 0 0 1 0 -1 0 0 1 0 0 -1 0 1 0 0 0 1 0 "
         in="fbSourceGraphic" />
    </filter>
  </defs>
  <g
     id="g2672-2-6"
     transform="matrix(1.01978,-0.0729417,0.07312539,1.0223481,-136.69139,5.5118207)"
     style="stroke-width:0.976873">
    <path
       style="display:inline;fill:none;stroke:#000000;stroke-width:1.17225;stroke-linecap:round;stroke-linejoin:miter;stroke-miterlimit:4;stroke-dasharray:none;stroke-opacity:1"
       d="m 171.14062,18.082416 c 2.38094,0.0988 5.09738,1.11564 5.04398,2.98231 -0.0534,1.86667 -2.22102,2.83007 -5.36561,2.04308 -3.14459,-0.78699 -3.67143,-2.1963 -3.48244,-3.28298 0.18899,-1.08668 1.42313,-1.84124 3.80407,-1.74241 z"
       id="path4536-0-38"
       inkscape:connector-curvature="0"
       sodipodi:nodetypes="zzzsz" />
    <ellipse
       ry="0.28872243"
       rx="0.25531372"
       style="display:inline;fill:#000000;fill-opacity:1;fill-rule:evenodd;stroke:#000000;stroke-width:0.976873;stroke-linecap:butt;stroke-linejoin:round;stroke-miterlimit:4;stroke-dasharray:none;stroke-dashoffset:0;stroke-opacity:1"
       id="path4570-6-5"
       cx="170.04402"
       cy="20.230988" />
    <circle
       r="0.28872243"
       style="display:inline;fill:#000000;fill-opacity:1;fill-rule:evenodd;stroke:#000000;stroke-width:0.976873;stroke-linecap:butt;stroke-linejoin:round;stroke-miterlimit:4;stroke-dasharray:none;stroke-dashoffset:0;stroke-opacity:1"
       id="path4570-9-15-6"
       cx="173.03125"
       cy="20.7966" />
  </g>
  <path
     style="display:inline;fill:none;stroke:#000000;stroke-width:1.2;stroke-linecap:round;stroke-linejoin:round;stroke-miterlimit:4;stroke-dasharray:none;stroke-opacity:1"
     d="m 38.118949,9.5715307 c 0.19436,-1.75844 1.72165,-1.83974 1.709,0.025"
     id="path1049-6-1"
     inkscape:connector-curvature="0" />
  <path
     style="display:inline;fill:none;stroke:#000000;stroke-width:1.2;stroke-linecap:round;stroke-linejoin:round;stroke-miterlimit:4;stroke-dasharray:none;stroke-opacity:1"
     d="m 42.025549,9.8489107 c 0.52671,-1.63359 2.03691,-1.2486 1.66768,0.5424103"
     id="path1049-4-9-1"
     inkscape:connector-curvature="0" />
  <path
     style="fill:none;stroke:#000000;stroke-width:1.2;stroke-linecap:round;stroke-linejoin:round;stroke-miterlimit:4;stroke-dasharray:none;stroke-opacity:1"
     d="M 34.413569,16.964431 C 31.828599,9.9828307 36.738229,6.3886007 36.738229,6.3886007"
     id="path2859-5"
     sodipodi:nodetypes="cc" />
  <path
     style="display:inline;fill:none;stroke:#000000;stroke-width:1.2;stroke-linecap:round;stroke-linejoin:round;stroke-miterlimit:4;stroke-dasharray:none;stroke-opacity:1"
     d="m 36.738229,6.3886007 c 0,0 1.05892,-3.14127 -0.69013,-4.58892 -2.07719,-1.71926996 4.38983,-2.13758996 5.3865,2.70032"
     id="path3951-9"
     sodipodi:nodetypes="csc" />
  <path
     style="display:inline;fill:none;stroke:#000000;stroke-width:1.2;stroke-linecap:round;stroke-linejoin:round;stroke-miterlimit:4;stroke-dasharray:none;stroke-opacity:1"
     d="m 43.867609,5.1367207 c 1.76705,-5.15342996 8.21495,-4.51814996 6.32254,-3.33619 -1.89239,1.18197 -1.22987,4.25823 -1.22987,4.25823"
     id="path3481-8"
     sodipodi:nodetypes="csc" />
  <path
     style="fill:none;stroke:#000000;stroke-width:1.2;stroke-linecap:round;stroke-linejoin:round;stroke-miterlimit:4;stroke-dasharray:none;stroke-opacity:1;paint-order:stroke fill markers"
     d="m 49.070839,6.6322507 c 1.18694,2.05459 3.62518,5.4247303 5.41591,9.3033003 0.85558,1.8531 1.11888,5.43097 0.18044,7.36832 -1.16916,2.41368 -3.78489,3.82898 -4.92826,4.85086 -2.07049,1.85047 -0.77799,5.88401 -3.68739,6.36744 -2.9094,0.48344 -2.04485,-4.32079 -2.45383,-5.66058 -0.40894,-1.33984 -4.17915,-4.34931 -5.98385,-6.75735 -1.14531,-1.52822 -3.05147,-4.85031 -3.05147,-4.85031"
     id="path4829-4"
     sodipodi:nodetypes="csssssac" />
  <path
     style="display:inline;fill:none;stroke:#000000;stroke-width:1.2;stroke-linecap:round;stroke-linejoin:round;stroke-miterlimit:4;stroke-dasharray:none;stroke-opacity:1"
     d="m 47.973999,17.848511 c 1.36241,-0.58654 4.52864,-1.3797 4.23189,-3.72409 -0.28458,-2.24836 -3.93707,0.0778 -4.88491,0.49232"
     id="path958-9-3-8"
     inkscape:connector-curvature="0"
     sodipodi:nodetypes="csc" />
  <path
     style="display:inline;fill:none;stroke:#000000;stroke-width:1.2;stroke-linecap:round;stroke-linejoin:round;stroke-miterlimit:4;stroke-dasharray:none;stroke-opacity:1"
     d="m 35.794149,19.649361 c -1.46162,0.2503 -4.405,1.20636 -5.42848,-0.92268 -0.98157,-2.04182 2.19051,-2.03196 3.21089,-2.20068"
     id="path958-9-3-5-1"
     inkscape:connector-curvature="0"
     sodipodi:nodetypes="csc" />
  <path
     style="display:inline;fill:none;stroke:#000000;stroke-width:1.2;stroke-linecap:round;stroke-linejoin:miter;stroke-miterlimit:4;stroke-dasharray:none;stroke-opacity:1"
     d="m 54.999089,23.575931 c 0,0 2.02749,1.12991 2.97785,0.0355 0.95031,-1.0944 0.0944,-2.46624 -0.84505,-1.84325 -0.93945,0.623 0.22836,2.49039 1.89669,2.11775 1.66832,-0.37266 1.14038,-2.53763 1.14038,-2.53763"
     id="path4620-4-7-0"
     inkscape:connector-curvature="0"
     sodipodi:nodetypes="csczc" />
  <path
     style="display:inline;fill:none;stroke:#000000;stroke-width:1.2;stroke-linecap:round;stroke-linejoin:round;stroke-miterlimit:4;stroke-dasharray:none;stroke-opacity:1"
     d="m 42.907069,27.739101 c -1.99121,0.15245 -3.50541,1.55292 -4.83935,2.15229 -1.22031,0.54828 -2.33203,-0.0789 -2.65671,-0.91381 -0.7558,-1.94347 1.94265,-3.56545 3.9016,-4.14941"
     id="path1105-3-4-3"
     inkscape:connector-curvature="0"
     sodipodi:nodetypes="cssc" />
  <path
     style="fill:none;stroke:#000000;stroke-width:1.2;stroke-linecap:round;stroke-linejoin:round;stroke-miterlimit:4;stroke-dasharray:none;stroke-opacity:1;paint-order:stroke fill markers"
     d="m 41.723919,4.3856707 2.00102,0.13139"
     id="path9535-0" />
  <g
     id="g2672-2-6-3"
     transform="matrix(-0.95690277,-0.11488673,-0.11488093,0.95685448,186.86088,13.842861)"
     style="stroke-width:1.03761">
    <path
       style="display:inline;fill:none;stroke:#000000;stroke-width:1.24514;stroke-linecap:round;stroke-linejoin:miter;stroke-miterlimit:4;stroke-dasharray:none;stroke-opacity:1"
       d="m 171.14062,18.082416 c 2.38094,0.0988 5.09738,1.11564 5.04398,2.98231 -0.0534,1.86667 -2.22102,2.83007 -5.36561,2.04308 -3.14459,-0.78699 -3.67143,-2.1963 -3.48244,-3.28298 0.18899,-1.08668 1.42313,-1.84124 3.80407,-1.74241 z"
       id="path4536-0-38-1"
       inkscape:connector-curvature="0"
       sodipodi:nodetypes="zzzsz" />
    <ellipse
       ry="0.28872243"
       rx="0.25531372"
       style="display:inline;fill:#000000;fill-opacity:1;fill-rule:evenodd;stroke:#000000;stroke-width:1.03761;stroke-linecap:butt;stroke-linejoin:round;stroke-miterlimit:4;stroke-dasharray:none;stroke-dashoffset:0;stroke-opacity:1"
       id="path4570-6-5-7"
       cx="170.04402"
       cy="20.230988" />
    <circle
       r="0.28872243"
       style="display:inline;fill:#000000;fill-opacity:1;fill-rule:evenodd;stroke:#000000;stroke-width:1.03761;stroke-linecap:butt;stroke-linejoin:round;stroke-miterlimit:4;stroke-dasharray:none;stroke-dashoffset:0;stroke-opacity:1"
       id="path4570-9-15-6-5"
       cx="173.03125"
       cy="20.7966" />
  </g>
  <path
     style="display:inline;fill:none;stroke:#000000;stroke-width:1.2;stroke-linecap:round;stroke-linejoin:round;stroke-miterlimit:4;stroke-dasharray:none;stroke-opacity:1"
     d="m 16.731196,9.5789707 c 0.0538,0.6884003 1.8013,1.0047803 1.87944,-0.28223"
     id="path1049-6-1-9"
     inkscape:connector-curvature="0"
     sodipodi:nodetypes="cc" />
  <path
     style="display:inline;fill:none;stroke:#000000;stroke-width:1.2;stroke-linecap:round;stroke-linejoin:round;stroke-miterlimit:4;stroke-dasharray:none;stroke-opacity:1"
     d="m 20.853936,9.0190607 c 0.21016,1.3200603 2.087453,0.92045 1.91078,-0.0391"
     id="path1049-4-9-1-6"
     inkscape:connector-curvature="0"
     sodipodi:nodetypes="cc" />
  <path
     style="fill:none;stroke:#000000;stroke-width:1.2;stroke-linecap:round;stroke-linejoin:round;stroke-miterlimit:4;stroke-dasharray:none;stroke-opacity:1"
     d="m 25.783689,16.914031 c 2.40801,-6.33704 -1.65436,-10.1032803 -1.65436,-10.1032803"
     id="path2859-5-2"
     sodipodi:nodetypes="cc" />
  <path
     style="display:inline;fill:none;stroke:#000000;stroke-width:1.2;stroke-linecap:round;stroke-linejoin:round;stroke-miterlimit:4;stroke-dasharray:none;stroke-opacity:1"
     d="m 23.811809,6.4849207 c 0,0 -1.375703,-2.79821 0.0811,-4.3626 1.73012,-1.85790996 -4.365503,-1.45334996 -4.702503,3.17902"
     id="path3951-9-1"
     sodipodi:nodetypes="csc" />
  <path
     style="display:inline;fill:none;stroke:#000000;stroke-width:1.2;stroke-linecap:round;stroke-linejoin:round;stroke-miterlimit:4;stroke-dasharray:none;stroke-opacity:1"
     d="m 17.383466,5.7481307 c -1.72782,-4.00889 -7.8693505,-2.96762 -5.93878,-2.1359 1.93057,0.83174 1.30591,3.69658 1.30591,3.69658"
     id="path3481-8-7"
     sodipodi:nodetypes="csc" />
  <path
     style="fill:none;stroke:#000000;stroke-width:1.2;stroke-linecap:round;stroke-linejoin:round;stroke-miterlimit:4;stroke-dasharray:none;stroke-opacity:1;paint-order:stroke fill markers"
     d="m 12.711896,7.3864907 c -0.69765,2.12512 -3.3157105,5.1566603 -6.0948705,8.5974503 -1.20626,1.49344 -1.298,5.04983 -0.50163,6.91205 0.99217,2.32008 3.47958,4.55464 4.5101305,5.56639 1.86618,1.83211 0.37935,4.77524 3.09697,5.36159 2.71762,0.58636 2.11988,-3.96505 2.56529,-5.20478 0.44536,-1.23976 3.48054,-3.19048 4.58458,-4.4453 1.10404,-1.25482 3.678713,-4.1811 3.678713,-4.1811"
     id="path4829-4-8"
     sodipodi:nodetypes="cssssszc" />
  <path
     style="display:inline;fill:none;stroke:#000000;stroke-width:1.2;stroke-linecap:round;stroke-linejoin:round;stroke-miterlimit:4;stroke-dasharray:none;stroke-opacity:1"
     d="m 24.678139,19.893811 c 1.38008,0.22234 4.30015,1.1915 5.24534,-0.81975 0.90656,-1.92847 -3.17315,-1.92628 -4.13655,-2.07582"
     id="path958-9-3-8-5"
     inkscape:connector-curvature="0"
     sodipodi:nodetypes="csc" />
  <path
     style="display:inline;fill:none;stroke:#000000;stroke-width:1.2;stroke-linecap:round;stroke-linejoin:round;stroke-miterlimit:4;stroke-dasharray:none;stroke-opacity:1"
     d="m 26.714589,12.988101 c 1.09075,-0.87422 3.62422,-2.5007 2.76713,-4.5506603 -0.82196,-1.96599 -2.45792,0.21337 -3.21514,0.82743"
     id="path958-9-3-5-1-7"
     inkscape:connector-curvature="0"
     sodipodi:nodetypes="csc" />
  <path
     style="display:inline;fill:none;stroke:#000000;stroke-width:1.2;stroke-linecap:round;stroke-linejoin:miter;stroke-miterlimit:4;stroke-dasharray:none;stroke-opacity:1"
     d="m 5.0180555,21.941401 c 0,0 -2.14274,0.43445 -2.68561,-0.81754 -0.54281,-1.25196 0.61605,-2.23741 1.28307,-1.41105 0.66703,0.82635 -0.91287,2.16699 -2.30593,1.35713 -1.39304997,-0.80988 -0.30346,-2.59974 -0.30346,-2.59974"
     id="path4620-4-7-0-4"
     inkscape:connector-curvature="0"
     sodipodi:nodetypes="csczc" />
  <path
     style="display:inline;fill:none;stroke:#000000;stroke-width:1.2;stroke-linecap:round;stroke-linejoin:round;stroke-miterlimit:4;stroke-dasharray:none;stroke-opacity:1"
     d="m 7.1974755,25.225511 c -1.11281,1.82348 -2.52031,1.17304 -3.63102,1.98892 -1.01608,0.74638 -1.02005,1.94872 -0.4881,2.60199 1.2383,1.52073 5.78502,-0.0902 7.1738005,-1.42574"
     id="path1105-3-4-3-1"
     inkscape:connector-curvature="0"
     sodipodi:nodetypes="cssc" />
  <path
     style="fill:none;stroke:#000000;stroke-width:1.2;stroke-linecap:round;stroke-linejoin:round;stroke-miterlimit:4;stroke-dasharray:none;stroke-opacity:1;paint-order:stroke fill markers"
     d="m 19.211846,5.2436907 -1.89284,0.35252"
     id="path9535-0-8"
     sodipodi:nodetypes="cc" />
  <path
     style="fill:#000000;stroke:#000000;stroke-width:1.2;stroke-linecap:round;stroke-linejoin:round;stroke-miterlimit:4;stroke-dasharray:none;stroke-opacity:1"
     d="m 40.512569,19.492521 -2.06115,-0.75042 0.44469,1.78757 3.87494,-2.23441 0.11542,2.05329 z"
     id="path45385" />
  <path
     style="fill:none;stroke:#000000;stroke-width:0.799999;stroke-linecap:round;stroke-linejoin:round;stroke-miterlimit:4;stroke-dasharray:none;stroke-opacity:1"
     d="m 19.021686,4.4660907 c -1.92001,-1.74936 -4.40133,-2.89112 -6.9608,-2.88974 -2.7774105,0.002 -5.4194005,1.55464 -7.5492205,3.14399 -1.7453,1.30243 -4.03038997,4.46039 -3.93377997,4.97571 0.0966,0.5153203 4.97933997,-0.35492 7.20128997,0.5732603 1.52143,0.63555 2.5443205,3.37241 3.7449105,3.23167 0.86983,-0.10196 1.55082,-3.8662603 2.88827,-5.4137103 0.71555,-0.82792 2.64208,-1.94846 2.64208,-1.94846"
     id="path45554"
     sodipodi:nodetypes="caazasac" />
  <path
     style="fill:none;stroke:#000000;stroke-width:0.799999;stroke-linecap:round;stroke-linejoin:round;stroke-miterlimit:4;stroke-dasharray:none;stroke-opacity:1"
     d="m 4.8731655,7.3980807 c 1.25486,-1.43638 2.98761,-4.00645 8.3303905,-4.31667"
     id="path47397"
     sodipodi:nodetypes="cc" />
  <path
     style="fill:none;stroke:#000000;stroke-width:0.799999;stroke-linecap:round;stroke-linejoin:round;stroke-miterlimit:4;stroke-dasharray:none;stroke-opacity:1"
     d="m 7.0119955,8.7572907 c 1.55637,-1.69328 2.95912,-3.84256 7.3495405,-4.22392"
     id="path47399"
     sodipodi:nodetypes="cc" />
  <path
     style="fill:none;stroke:#000000;stroke-width:0.799999;stroke-linecap:round;stroke-linejoin:round;stroke-miterlimit:4;stroke-dasharray:none;stroke-opacity:1"
     d="m 9.9301755,9.9732107 c 1.0565705,-2.02741 1.9640005,-3.68881 5.3189905,-4.13561"
     id="path47401"
     sodipodi:nodetypes="cc" />
</svg>
